<?xml version="1.0" encoding="utf-8" standalone="no"?>
<!DOCTYPE svg PUBLIC "-//W3C//DTD SVG 1.1//EN"
  "http://www.w3.org/Graphics/SVG/1.1/DTD/svg11.dtd">
<svg xmlns:xlink="http://www.w3.org/1999/xlink" width="414.72pt" height="323.28pt" viewBox="0 0 414.72 323.28" xmlns="http://www.w3.org/2000/svg" version="1.1">
 <metadata>
  <rdf:RDF xmlns:dc="http://purl.org/dc/elements/1.1/" xmlns:cc="http://creativecommons.org/ns#" xmlns:rdf="http://www.w3.org/1999/02/22-rdf-syntax-ns#">
   <cc:Work>
    <dc:type rdf:resource="http://purl.org/dc/dcmitype/StillImage"/>
    <dc:format>image/svg+xml</dc:format>
    <dc:creator>
     <cc:Agent>
      <dc:title>Matplotlib v3.9.4, https://matplotlib.org/</dc:title>
     </cc:Agent>
    </dc:creator>
   </cc:Work>
  </rdf:RDF>
 </metadata>
 <defs>
  <style type="text/css">*{stroke-linejoin: round; stroke-linecap: butt}</style>
 </defs>
 <g id="figure_1">
  <g id="patch_1">
   <path d="M 0 323.28 
L 414.72 323.28 
L 414.72 0 
L 0 0 
z
" style="fill: #ffffff"/>
  </g>
  <g id="axes_1">
   <g id="patch_2">
    <path d="M 38.482813 299.401875 
L 407.52 299.401875 
L 407.52 7.2 
L 38.482813 7.2 
z
" style="fill: #ffffff"/>
   </g>
   <g id="matplotlib.axis_1">
    <g id="xtick_1">
     <g id="line2d_1">
      <path d="M 54.394519 299.401875 
L 54.394519 7.2 
" clip-path="url(#p033da78043)" style="fill: none; stroke: #b0b0b0; stroke-opacity: 0.3; stroke-width: 0.8; stroke-linecap: square"/>
     </g>
     <g id="line2d_2">
      <defs>
       <path id="mb339c0b86b" d="M 0 0 
L 0 3.5 
" style="stroke: #000000; stroke-width: 0.8"/>
      </defs>
      <g>
       <use xlink:href="#mb339c0b86b" x="54.394519" y="299.401875" style="stroke: #000000; stroke-width: 0.8"/>
      </g>
     </g>
     <g id="text_1">
      <text style="font: 10px 'DejaVu Sans', 'Bitstream Vera Sans', 'Computer Modern Sans Serif', 'Lucida Grande', 'Verdana', 'Geneva', 'Lucid', 'Arial', 'Helvetica', 'Avant Garde', sans-serif; text-anchor: middle" x="54.394519" y="314.000312" transform="rotate(-0 54.394519 314.000312)">1980</text>
     </g>
    </g>
    <g id="xtick_2">
     <g id="line2d_3">
      <path d="M 108.673546 299.401875 
L 108.673546 7.2 
" clip-path="url(#p033da78043)" style="fill: none; stroke: #b0b0b0; stroke-opacity: 0.3; stroke-width: 0.8; stroke-linecap: square"/>
     </g>
     <g id="line2d_4">
      <g>
       <use xlink:href="#mb339c0b86b" x="108.673546" y="299.401875" style="stroke: #000000; stroke-width: 0.8"/>
      </g>
     </g>
     <g id="text_2">
      <text style="font: 10px 'DejaVu Sans', 'Bitstream Vera Sans', 'Computer Modern Sans Serif', 'Lucida Grande', 'Verdana', 'Geneva', 'Lucid', 'Arial', 'Helvetica', 'Avant Garde', sans-serif; text-anchor: middle" x="108.673546" y="314.000312" transform="rotate(-0 108.673546 314.000312)">1985</text>
     </g>
    </g>
    <g id="xtick_3">
     <g id="line2d_5">
      <path d="M 162.952573 299.401875 
L 162.952573 7.2 
" clip-path="url(#p033da78043)" style="fill: none; stroke: #b0b0b0; stroke-opacity: 0.3; stroke-width: 0.8; stroke-linecap: square"/>
     </g>
     <g id="line2d_6">
      <g>
       <use xlink:href="#mb339c0b86b" x="162.952573" y="299.401875" style="stroke: #000000; stroke-width: 0.8"/>
      </g>
     </g>
     <g id="text_3">
      <text style="font: 10px 'DejaVu Sans', 'Bitstream Vera Sans', 'Computer Modern Sans Serif', 'Lucida Grande', 'Verdana', 'Geneva', 'Lucid', 'Arial', 'Helvetica', 'Avant Garde', sans-serif; text-anchor: middle" x="162.952573" y="314.000312" transform="rotate(-0 162.952573 314.000312)">1990</text>
     </g>
    </g>
    <g id="xtick_4">
     <g id="line2d_7">
      <path d="M 217.2316 299.401875 
L 217.2316 7.2 
" clip-path="url(#p033da78043)" style="fill: none; stroke: #b0b0b0; stroke-opacity: 0.3; stroke-width: 0.8; stroke-linecap: square"/>
     </g>
     <g id="line2d_8">
      <g>
       <use xlink:href="#mb339c0b86b" x="217.2316" y="299.401875" style="stroke: #000000; stroke-width: 0.8"/>
      </g>
     </g>
     <g id="text_4">
      <text style="font: 10px 'DejaVu Sans', 'Bitstream Vera Sans', 'Computer Modern Sans Serif', 'Lucida Grande', 'Verdana', 'Geneva', 'Lucid', 'Arial', 'Helvetica', 'Avant Garde', sans-serif; text-anchor: middle" x="217.2316" y="314.000312" transform="rotate(-0 217.2316 314.000312)">1995</text>
     </g>
    </g>
    <g id="xtick_5">
     <g id="line2d_9">
      <path d="M 271.510627 299.401875 
L 271.510627 7.2 
" clip-path="url(#p033da78043)" style="fill: none; stroke: #b0b0b0; stroke-opacity: 0.3; stroke-width: 0.8; stroke-linecap: square"/>
     </g>
     <g id="line2d_10">
      <g>
       <use xlink:href="#mb339c0b86b" x="271.510627" y="299.401875" style="stroke: #000000; stroke-width: 0.8"/>
      </g>
     </g>
     <g id="text_5">
      <text style="font: 10px 'DejaVu Sans', 'Bitstream Vera Sans', 'Computer Modern Sans Serif', 'Lucida Grande', 'Verdana', 'Geneva', 'Lucid', 'Arial', 'Helvetica', 'Avant Garde', sans-serif; text-anchor: middle" x="271.510627" y="314.000312" transform="rotate(-0 271.510627 314.000312)">2000</text>
     </g>
    </g>
    <g id="xtick_6">
     <g id="line2d_11">
      <path d="M 325.789654 299.401875 
L 325.789654 7.2 
" clip-path="url(#p033da78043)" style="fill: none; stroke: #b0b0b0; stroke-opacity: 0.3; stroke-width: 0.8; stroke-linecap: square"/>
     </g>
     <g id="line2d_12">
      <g>
       <use xlink:href="#mb339c0b86b" x="325.789654" y="299.401875" style="stroke: #000000; stroke-width: 0.8"/>
      </g>
     </g>
     <g id="text_6">
      <text style="font: 10px 'DejaVu Sans', 'Bitstream Vera Sans', 'Computer Modern Sans Serif', 'Lucida Grande', 'Verdana', 'Geneva', 'Lucid', 'Arial', 'Helvetica', 'Avant Garde', sans-serif; text-anchor: middle" x="325.789654" y="314.000312" transform="rotate(-0 325.789654 314.000312)">2005</text>
     </g>
    </g>
    <g id="xtick_7">
     <g id="line2d_13">
      <path d="M 380.068681 299.401875 
L 380.068681 7.2 
" clip-path="url(#p033da78043)" style="fill: none; stroke: #b0b0b0; stroke-opacity: 0.3; stroke-width: 0.8; stroke-linecap: square"/>
     </g>
     <g id="line2d_14">
      <g>
       <use xlink:href="#mb339c0b86b" x="380.068681" y="299.401875" style="stroke: #000000; stroke-width: 0.8"/>
      </g>
     </g>
     <g id="text_7">
      <text style="font: 10px 'DejaVu Sans', 'Bitstream Vera Sans', 'Computer Modern Sans Serif', 'Lucida Grande', 'Verdana', 'Geneva', 'Lucid', 'Arial', 'Helvetica', 'Avant Garde', sans-serif; text-anchor: middle" x="380.068681" y="314.000312" transform="rotate(-0 380.068681 314.000312)">2010</text>
     </g>
    </g>
   </g>
   <g id="matplotlib.axis_2">
    <g id="ytick_1">
     <g id="line2d_15">
      <path d="M 38.482813 291.328561 
L 407.52 291.328561 
" clip-path="url(#p033da78043)" style="fill: none; stroke: #b0b0b0; stroke-opacity: 0.3; stroke-width: 0.8; stroke-linecap: square"/>
     </g>
     <g id="line2d_16">
      <defs>
       <path id="md272786d3b" d="M 0 0 
L -3.5 0 
" style="stroke: #000000; stroke-width: 0.8"/>
      </defs>
      <g>
       <use xlink:href="#md272786d3b" x="38.482813" y="291.328561" style="stroke: #000000; stroke-width: 0.8"/>
      </g>
     </g>
     <g id="text_8">
      <text style="font: 10px 'DejaVu Sans', 'Bitstream Vera Sans', 'Computer Modern Sans Serif', 'Lucida Grande', 'Verdana', 'Geneva', 'Lucid', 'Arial', 'Helvetica', 'Avant Garde', sans-serif; text-anchor: end" x="31.482813" y="295.12778" transform="rotate(-0 31.482813 295.12778)">−0.4</text>
     </g>
    </g>
    <g id="ytick_2">
     <g id="line2d_17">
      <path d="M 38.482813 239.242665 
L 407.52 239.242665 
" clip-path="url(#p033da78043)" style="fill: none; stroke: #b0b0b0; stroke-opacity: 0.3; stroke-width: 0.8; stroke-linecap: square"/>
     </g>
     <g id="line2d_18">
      <g>
       <use xlink:href="#md272786d3b" x="38.482813" y="239.242665" style="stroke: #000000; stroke-width: 0.8"/>
      </g>
     </g>
     <g id="text_9">
      <text style="font: 10px 'DejaVu Sans', 'Bitstream Vera Sans', 'Computer Modern Sans Serif', 'Lucida Grande', 'Verdana', 'Geneva', 'Lucid', 'Arial', 'Helvetica', 'Avant Garde', sans-serif; text-anchor: end" x="31.482813" y="243.041884" transform="rotate(-0 31.482813 243.041884)">−0.2</text>
     </g>
    </g>
    <g id="ytick_3">
     <g id="line2d_19">
      <path d="M 38.482813 187.15677 
L 407.52 187.15677 
" clip-path="url(#p033da78043)" style="fill: none; stroke: #b0b0b0; stroke-opacity: 0.3; stroke-width: 0.8; stroke-linecap: square"/>
     </g>
     <g id="line2d_20">
      <g>
       <use xlink:href="#md272786d3b" x="38.482813" y="187.15677" style="stroke: #000000; stroke-width: 0.8"/>
      </g>
     </g>
     <g id="text_10">
      <text style="font: 10px 'DejaVu Sans', 'Bitstream Vera Sans', 'Computer Modern Sans Serif', 'Lucida Grande', 'Verdana', 'Geneva', 'Lucid', 'Arial', 'Helvetica', 'Avant Garde', sans-serif; text-anchor: end" x="31.482813" y="190.955988" transform="rotate(-0 31.482813 190.955988)">0.0</text>
     </g>
    </g>
    <g id="ytick_4">
     <g id="line2d_21">
      <path d="M 38.482813 135.070874 
L 407.52 135.070874 
" clip-path="url(#p033da78043)" style="fill: none; stroke: #b0b0b0; stroke-opacity: 0.3; stroke-width: 0.8; stroke-linecap: square"/>
     </g>
     <g id="line2d_22">
      <g>
       <use xlink:href="#md272786d3b" x="38.482813" y="135.070874" style="stroke: #000000; stroke-width: 0.8"/>
      </g>
     </g>
     <g id="text_11">
      <text style="font: 10px 'DejaVu Sans', 'Bitstream Vera Sans', 'Computer Modern Sans Serif', 'Lucida Grande', 'Verdana', 'Geneva', 'Lucid', 'Arial', 'Helvetica', 'Avant Garde', sans-serif; text-anchor: end" x="31.482813" y="138.870093" transform="rotate(-0 31.482813 138.870093)">0.2</text>
     </g>
    </g>
    <g id="ytick_5">
     <g id="line2d_23">
      <path d="M 38.482813 82.984978 
L 407.52 82.984978 
" clip-path="url(#p033da78043)" style="fill: none; stroke: #b0b0b0; stroke-opacity: 0.3; stroke-width: 0.8; stroke-linecap: square"/>
     </g>
     <g id="line2d_24">
      <g>
       <use xlink:href="#md272786d3b" x="38.482813" y="82.984978" style="stroke: #000000; stroke-width: 0.8"/>
      </g>
     </g>
     <g id="text_12">
      <text style="font: 10px 'DejaVu Sans', 'Bitstream Vera Sans', 'Computer Modern Sans Serif', 'Lucida Grande', 'Verdana', 'Geneva', 'Lucid', 'Arial', 'Helvetica', 'Avant Garde', sans-serif; text-anchor: end" x="31.482813" y="86.784197" transform="rotate(-0 31.482813 86.784197)">0.4</text>
     </g>
    </g>
    <g id="ytick_6">
     <g id="line2d_25">
      <path d="M 38.482813 30.899083 
L 407.52 30.899083 
" clip-path="url(#p033da78043)" style="fill: none; stroke: #b0b0b0; stroke-opacity: 0.3; stroke-width: 0.8; stroke-linecap: square"/>
     </g>
     <g id="line2d_26">
      <g>
       <use xlink:href="#md272786d3b" x="38.482813" y="30.899083" style="stroke: #000000; stroke-width: 0.8"/>
      </g>
     </g>
     <g id="text_13">
      <text style="font: 10px 'DejaVu Sans', 'Bitstream Vera Sans', 'Computer Modern Sans Serif', 'Lucida Grande', 'Verdana', 'Geneva', 'Lucid', 'Arial', 'Helvetica', 'Avant Garde', sans-serif; text-anchor: end" x="31.482813" y="34.698301" transform="rotate(-0 31.482813 34.698301)">0.6</text>
     </g>
    </g>
   </g>
   <g id="line2d_27">
    <path d="M 55.25723 184.552475 
L 56.149035 158.509527 
L 57.04225 150.696643 
L 57.934055 150.696643 
L 58.825859 179.343885 
L 59.717772 213.199718 
L 60.610879 213.199718 
L 61.502792 231.429781 
L 62.394596 145.488053 
L 63.287704 184.552475 
L 64.179617 171.531001 
L 65.071421 168.926706 
L 65.964637 171.531001 
L 67.748245 103.819337 
L 68.641461 194.969654 
L 69.533266 194.969654 
L 70.42507 213.199718 
L 71.318286 194.969654 
L 72.21009 179.343885 
L 73.102003 158.509527 
L 73.993807 163.718117 
L 74.887023 148.092348 
L 75.778827 129.862284 
L 76.670632 150.696643 
L 77.563848 90.797863 
L 78.455652 109.027926 
L 79.347456 168.926706 
L 80.240672 171.531001 
L 81.132476 218.408307 
L 82.024389 218.408307 
L 82.917497 194.969654 
L 83.809301 176.739591 
L 84.701214 179.343885 
L 85.594321 213.199718 
L 86.486234 184.552475 
L 87.378038 210.595423 
L 88.271254 137.675169 
L 89.163059 137.675169 
L 90.054863 142.883758 
L 90.946776 189.761065 
L 91.839883 247.05555 
L 92.731687 286.119972 
L 93.6236 223.616897 
L 94.516707 179.343885 
L 95.40862 148.092348 
L 96.300425 148.092348 
L 98.977249 207.991128 
L 99.870465 213.199718 
L 100.762269 181.94818 
L 101.654074 205.386833 
L 102.54729 218.408307 
L 103.439094 228.825486 
L 104.331007 20.481903 
L 105.224114 171.531001 
L 106.115918 176.739591 
L 107.007831 171.531001 
L 107.899636 132.466579 
L 108.792851 166.322411 
L 109.684656 158.509527 
L 110.57646 161.113822 
L 111.469676 124.653695 
L 112.36148 174.135296 
L 113.253393 197.573949 
L 114.1465 234.034076 
L 115.038305 218.408307 
L 115.930218 163.718117 
L 116.823325 158.509527 
L 117.715238 187.15677 
L 118.607042 205.386833 
L 119.500149 166.322411 
L 120.392062 135.070874 
L 121.283867 140.279464 
L 122.177082 129.862284 
L 123.068887 184.552475 
L 123.960691 221.012602 
L 124.852604 239.242665 
L 125.745711 210.595423 
L 126.637624 163.718117 
L 127.529429 135.070874 
L 128.422536 145.488053 
L 129.314449 181.94818 
L 130.206253 200.178244 
L 131.099469 150.696643 
L 131.991273 119.445105 
L 132.883078 101.215042 
L 133.776293 122.0494 
L 134.668098 72.567799 
L 136.453118 223.616897 
L 137.344922 207.991128 
L 138.236835 119.445105 
L 140.021855 98.610747 
L 140.91366 129.862284 
L 141.805464 150.696643 
L 142.69868 179.343885 
L 143.590484 153.300937 
L 144.482289 145.488053 
L 145.375504 207.991128 
L 146.267309 221.012602 
L 147.159222 207.991128 
L 148.052329 207.991128 
L 148.944133 181.94818 
L 149.836046 132.466579 
L 150.729153 181.94818 
L 151.621066 145.488053 
L 152.512871 132.466579 
L 153.406086 166.322411 
L 154.297891 129.862284 
L 155.189695 202.782538 
L 156.081608 155.905232 
L 156.974715 189.761065 
L 157.86652 192.365359 
L 158.758433 223.616897 
L 159.65154 213.199718 
L 160.543453 127.25799 
L 161.435257 155.905232 
L 162.328364 197.573949 
L 163.220277 158.509527 
L 164.112082 142.883758 
L 165.005297 137.675169 
L 165.897102 135.070874 
L 166.788906 189.761065 
L 167.682122 205.386833 
L 168.573926 205.386833 
L 169.465839 189.761065 
L 170.358946 181.94818 
L 171.250751 148.092348 
L 172.142664 140.279464 
L 173.034468 168.926706 
L 173.927684 150.696643 
L 174.819488 174.135296 
L 176.604508 116.84081 
L 177.496313 158.509527 
L 178.388226 192.365359 
L 179.281333 218.408307 
L 180.173137 218.408307 
L 181.06505 179.343885 
L 181.958157 119.445105 
L 183.741875 150.696643 
L 184.634982 116.84081 
L 185.526895 171.531001 
L 186.418699 145.488053 
L 187.311915 98.610747 
L 188.203719 129.862284 
L 189.095524 187.15677 
L 189.987437 202.782538 
L 190.880544 241.84696 
L 191.772457 226.221192 
L 192.664261 192.365359 
L 193.557368 132.466579 
L 194.449281 124.653695 
L 195.341086 189.761065 
L 196.234301 197.573949 
L 197.126106 174.135296 
L 198.01791 140.279464 
L 198.911126 145.488053 
L 199.80293 137.675169 
L 202.479755 226.221192 
L 204.263472 111.632221 
L 205.156688 140.279464 
L 206.048492 145.488053 
L 206.940296 158.509527 
L 207.833512 96.006452 
L 208.725317 166.322411 
L 209.617121 129.862284 
L 210.510337 155.905232 
L 211.402141 213.199718 
L 212.294054 210.595423 
L 213.187161 205.386833 
L 214.078966 171.531001 
L 214.970878 132.466579 
L 215.863986 158.509527 
L 216.755899 192.365359 
L 217.647703 153.300937 
L 218.540919 145.488053 
L 219.432723 140.279464 
L 220.324527 111.632221 
L 221.21644 181.94818 
L 222.109548 234.034076 
L 223.001352 236.638371 
L 223.893265 218.408307 
L 224.786372 184.552475 
L 225.678285 168.926706 
L 226.570089 158.509527 
L 227.463197 187.15677 
L 228.35511 202.782538 
L 229.246914 174.135296 
L 230.14013 161.113822 
L 231.031934 116.84081 
L 231.923738 166.322411 
L 232.816954 226.221192 
L 233.708758 241.84696 
L 234.600671 226.221192 
L 235.493779 200.178244 
L 236.385583 119.445105 
L 237.277496 124.653695 
L 238.1693 194.969654 
L 239.062516 187.15677 
L 239.95432 207.991128 
L 240.846125 207.991128 
L 241.739341 168.926706 
L 242.631145 192.365359 
L 243.523058 239.242665 
L 244.416165 252.264139 
L 245.307969 257.472729 
L 246.199882 228.825486 
L 247.09299 176.739591 
L 247.984902 153.300937 
L 248.876707 155.905232 
L 249.769814 181.94818 
L 250.661727 163.718117 
L 251.553531 179.343885 
L 252.446747 168.926706 
L 253.338551 166.322411 
L 255.122269 210.595423 
L 256.015376 254.868434 
L 256.907289 221.012602 
L 257.799093 150.696643 
L 258.6922 161.113822 
L 259.584113 166.322411 
L 260.475918 158.509527 
L 261.369133 155.905232 
L 262.260938 197.573949 
L 263.152742 137.675169 
L 264.045958 215.804012 
L 264.937762 218.408307 
L 265.829567 228.825486 
L 266.722782 221.012602 
L 268.5065 174.135296 
L 269.398304 189.761065 
L 270.29152 181.94818 
L 271.183324 155.905232 
L 272.075129 187.15677 
L 273.860149 93.402157 
L 274.751953 181.94818 
L 275.645169 231.429781 
L 276.536973 228.825486 
L 277.428886 244.451255 
L 279.213798 140.279464 
L 280.105711 145.488053 
L 280.998818 155.905232 
L 281.890731 158.509527 
L 282.782535 176.739591 
L 283.675751 148.092348 
L 284.567555 163.718117 
L 285.45936 111.632221 
L 286.351273 176.739591 
L 287.24438 184.552475 
L 288.136184 181.94818 
L 289.028097 187.15677 
L 289.921204 171.531001 
L 290.813117 137.675169 
L 291.704922 137.675169 
L 292.598029 135.070874 
L 293.489942 179.343885 
L 294.381746 174.135296 
L 295.274962 145.488053 
L 296.166766 124.653695 
L 297.058571 137.675169 
L 297.951786 166.322411 
L 298.843591 187.15677 
L 299.735504 184.552475 
L 300.628611 174.135296 
L 301.520415 142.883758 
L 302.412328 168.926706 
L 303.304133 109.027926 
L 305.089153 124.653695 
L 305.980957 106.423631 
L 306.874173 127.25799 
L 307.765977 184.552475 
L 308.65789 187.15677 
L 309.550997 184.552475 
L 310.442802 184.552475 
L 311.334715 155.905232 
L 312.227822 132.466579 
L 313.119735 176.739591 
L 314.011539 142.883758 
L 314.904646 137.675169 
L 315.796559 124.653695 
L 316.688364 106.423631 
L 317.581579 77.776389 
L 319.365188 221.012602 
L 321.150208 205.386833 
L 322.042121 176.739591 
L 322.933926 111.632221 
L 323.827033 122.0494 
L 324.718946 168.926706 
L 325.61075 153.300937 
L 326.503966 155.905232 
L 328.287575 64.754915 
L 330.072595 155.905232 
L 330.964399 179.343885 
L 331.857615 181.94818 
L 332.749419 179.343885 
L 333.641332 179.343885 
L 334.533137 122.0494 
L 335.426352 140.279464 
L 336.318157 132.466579 
L 337.209961 171.531001 
L 338.103177 168.926706 
L 338.994981 119.445105 
L 339.886786 135.070874 
L 340.780001 148.092348 
L 341.671806 197.573949 
L 342.563719 184.552475 
L 343.456826 181.94818 
L 344.34863 176.739591 
L 345.240543 119.445105 
L 346.13365 148.092348 
L 347.025563 142.883758 
L 347.917368 116.84081 
L 348.810583 148.092348 
L 349.702388 153.300937 
L 350.594192 132.466579 
L 351.486105 171.531001 
L 352.379212 184.552475 
L 353.271017 184.552475 
L 354.16293 181.94818 
L 355.94795 129.862284 
L 356.839754 142.883758 
L 357.732861 122.0494 
L 358.624774 124.653695 
L 359.516578 153.300937 
L 360.409794 90.797863 
L 361.301599 106.423631 
L 362.193403 155.905232 
L 363.086619 184.552475 
L 363.978423 181.94818 
L 364.870336 176.739591 
L 365.763443 168.926706 
L 366.655248 114.236516 
L 367.547161 163.718117 
L 368.438965 166.322411 
L 369.332181 181.94818 
L 370.223985 168.926706 
L 371.115789 122.0494 
L 372.009005 88.193568 
L 373.792722 210.595423 
L 374.68583 202.782538 
L 375.577634 205.386833 
L 376.469547 171.531001 
L 377.362654 106.423631 
L 378.254567 103.819337 
L 379.146371 111.632221 
L 380.039479 129.862284 
L 380.931392 168.926706 
L 381.823196 129.862284 
L 382.716412 145.488053 
L 383.608216 124.653695 
L 384.50002 192.365359 
L 385.391933 249.659845 
L 386.285041 231.429781 
L 387.176953 205.386833 
L 388.068758 174.135296 
L 388.961865 85.589273 
L 389.853778 109.027926 
L 390.745582 158.509527 
L 390.745582 158.509527 
" clip-path="url(#p033da78043)" style="fill: none; stroke: #1f77b4; stroke-width: 0.8; stroke-linecap: square"/>
   </g>
   <g id="patch_3">
    <path d="M 38.482813 299.401875 
L 38.482813 7.2 
" style="fill: none; stroke: #000000; stroke-width: 0.8; stroke-linejoin: miter; stroke-linecap: square"/>
   </g>
   <g id="patch_4">
    <path d="M 407.52 299.401875 
L 407.52 7.2 
" style="fill: none; stroke: #000000; stroke-width: 0.8; stroke-linejoin: miter; stroke-linecap: square"/>
   </g>
   <g id="patch_5">
    <path d="M 38.482812 299.401875 
L 407.52 299.401875 
" style="fill: none; stroke: #000000; stroke-width: 0.8; stroke-linejoin: miter; stroke-linecap: square"/>
   </g>
   <g id="patch_6">
    <path d="M 38.482812 7.2 
L 407.52 7.2 
" style="fill: none; stroke: #000000; stroke-width: 0.8; stroke-linejoin: miter; stroke-linecap: square"/>
   </g>
   <g id="legend_1">
    <g id="patch_7">
     <path d="M 322.930937 29.878125 
L 400.52 29.878125 
Q 402.52 29.878125 402.52 27.878125 
L 402.52 14.2 
Q 402.52 12.2 400.52 12.2 
L 322.930937 12.2 
Q 320.930937 12.2 320.930937 14.2 
L 320.930937 27.878125 
Q 320.930937 29.878125 322.930937 29.878125 
z
" style="fill: #ffffff; opacity: 0.8; stroke: #cccccc; stroke-linejoin: miter"/>
    </g>
    <g id="line2d_28">
     <path d="M 324.930937 20.298437 
L 334.930937 20.298437 
L 344.930937 20.298437 
" style="fill: none; stroke: #1f77b4; stroke-width: 0.8; stroke-linecap: square"/>
    </g>
    <g id="text_14">
     <text style="font: 10px 'DejaVu Sans', 'Bitstream Vera Sans', 'Computer Modern Sans Serif', 'Lucida Grande', 'Verdana', 'Geneva', 'Lucid', 'Arial', 'Helvetica', 'Avant Garde', sans-serif; text-anchor: start" x="352.930937" y="23.798437" transform="rotate(-0 352.930937 23.798437)">Sea level</text>
    </g>
   </g>
  </g>
 </g>
 <defs>
  <clipPath id="p033da78043">
   <rect x="38.482813" y="7.2" width="369.037187" height="292.201875"/>
  </clipPath>
 </defs>
</svg>
