<?xml version="1.0" encoding="utf-8" standalone="no"?>
<!DOCTYPE svg PUBLIC "-//W3C//DTD SVG 1.1//EN"
  "http://www.w3.org/Graphics/SVG/1.1/DTD/svg11.dtd">
<svg xmlns:xlink="http://www.w3.org/1999/xlink" width="419.270312pt" height="323.398125pt" viewBox="0 0 419.270312 323.398125" xmlns="http://www.w3.org/2000/svg" version="1.1">
 <metadata>
  <rdf:RDF xmlns:dc="http://purl.org/dc/elements/1.1/" xmlns:cc="http://creativecommons.org/ns#" xmlns:rdf="http://www.w3.org/1999/02/22-rdf-syntax-ns#">
   <cc:Work>
    <dc:type rdf:resource="http://purl.org/dc/dcmitype/StillImage"/>
    <dc:format>image/svg+xml</dc:format>
    <dc:creator>
     <cc:Agent>
      <dc:title>Matplotlib v3.9.4, https://matplotlib.org/</dc:title>
     </cc:Agent>
    </dc:creator>
   </cc:Work>
  </rdf:RDF>
 </metadata>
 <defs>
  <style type="text/css">*{stroke-linejoin: round; stroke-linecap: butt}</style>
 </defs>
 <g id="figure_1">
  <g id="patch_1">
   <path d="M 0 323.398125 
L 419.270312 323.398125 
L 419.270312 0 
L 0 0 
z
" style="fill: #ffffff"/>
  </g>
  <g id="axes_1">
   <g id="patch_2">
    <path d="M 44.845313 299.52 
L 412.070312 299.52 
L 412.070312 7.2 
L 44.845313 7.2 
z
" style="fill: #ffffff"/>
   </g>
   <g id="patch_3">
    <path d="M 44.845313 252.132152 
L 412.070312 252.132152 
L 412.070312 234.851056 
L 44.845313 234.851056 
z
" clip-path="url(#pf2cbbb50f9)" style="fill: #d9d9d9; opacity: 0.6"/>
   </g>
   <g id="line2d_1">
    <path d="M 392.093271 226.620328 
L 391.473081 218.410391 
L 390.441171 210.241984 
L 389.000149 202.135742 
L 387.153654 194.112142 
L 384.906351 186.191452 
L 382.263916 178.39368 
L 379.233026 170.738525 
L 375.821336 163.245323 
L 372.037463 155.933003 
L 367.890968 148.820038 
L 363.392324 141.924394 
L 358.552895 135.263491 
L 353.384905 128.854155 
L 347.90141 122.712576 
L 342.116262 116.854269 
L 336.044074 111.294032 
L 329.700185 106.045911 
L 323.100621 101.123163 
L 316.262052 96.538223 
L 309.201753 92.302673 
L 301.937559 88.427212 
L 294.48782 84.921632 
L 286.871356 81.794785 
L 279.107404 79.054573 
L 271.215579 76.707915 
L 263.215816 74.760741 
L 255.128322 73.217969 
L 246.973527 72.083497 
L 238.772032 71.360189 
L 230.544553 71.049873 
L 222.311874 71.153334 
L 214.094792 71.670309 
L 205.914064 72.599492 
L 197.790354 73.938537 
L 189.744184 75.684062 
L 181.79588 77.831656 
L 173.965518 80.375894 
L 166.272881 83.31035 
L 158.7374 86.627611 
L 151.378109 90.319298 
L 144.2136 94.376084 
L 137.261971 98.787722 
L 130.540781 103.543068 
L 124.06701 108.63011 
L 117.857011 114.035996 
L 111.92647 119.747072 
L 106.290368 125.74891 
L 100.962944 132.02635 
L 95.957654 138.563534 
L 91.287142 145.343949 
L 86.963206 152.350466 
L 82.99677 159.565387 
L 79.397852 166.970486 
L 76.175544 174.547058 
L 73.337986 182.275962 
L 70.892345 190.137676 
L 68.844799 198.11234 
L 67.200521 206.179808 
L 65.963664 214.319703 
L 65.137353 222.511462 
L 64.878846 226.620328 
L 62.104375 228.966781 
L 61.537358 231.761321 
L 63.177331 235.003854 
L 67.405733 235.670127 
L 389.577124 235.59825 
L 393.603657 234.853962 
L 395.378267 231.691491 
L 394.874886 228.946931 
L 392.093271 226.620328 
L 392.093271 226.620328 
" clip-path="url(#pf2cbbb50f9)" style="fill: none; stroke: #999999; stroke-opacity: 0.6; stroke-width: 0.8; stroke-linecap: square"/>
   </g>
   <g id="line2d_2">
    <path d="M 392.093271 226.620328 
L 391.473081 218.410391 
L 390.441171 210.241984 
L 389.000149 202.135742 
L 387.153654 194.112142 
L 384.906351 186.191452 
L 382.263916 178.39368 
L 379.233026 170.738525 
L 375.821336 163.245323 
L 372.037463 155.933003 
L 367.890968 148.820038 
L 363.392324 141.924394 
L 358.552895 135.263491 
L 353.384905 128.854155 
L 347.90141 122.712576 
L 342.116262 116.854269 
L 336.044074 111.294032 
L 329.700185 106.045911 
L 323.100621 101.123163 
L 316.262052 96.538223 
L 309.201753 92.302673 
L 301.937559 88.427212 
L 294.48782 84.921632 
L 286.871356 81.794785 
L 279.107404 79.054573 
L 271.215579 76.707915 
L 263.215816 74.760741 
L 255.128322 73.217969 
L 246.973527 72.083497 
L 238.772032 71.360189 
L 230.544553 71.049873 
L 222.311874 71.153334 
L 214.094792 71.670309 
L 205.914064 72.599492 
L 197.790354 73.938537 
L 189.744184 75.684062 
L 181.79588 77.831656 
L 173.965518 80.375894 
L 166.272881 83.31035 
L 158.7374 86.627611 
L 151.378109 90.319298 
L 144.2136 94.376084 
L 137.261971 98.787722 
L 130.540781 103.543068 
L 124.06701 108.63011 
L 117.857011 114.035996 
L 111.92647 119.747072 
L 106.290368 125.74891 
L 100.962944 132.02635 
L 95.957654 138.563534 
L 91.287142 145.343949 
L 86.963206 152.350466 
L 82.99677 159.565387 
L 79.397852 166.970486 
L 76.175544 174.547058 
L 73.337986 182.275962 
L 70.892345 190.137676 
L 68.844799 198.11234 
L 67.200521 206.179808 
L 65.963664 214.319703 
L 65.137353 222.511462 
L 64.878846 226.620328 
L 62.104375 228.966781 
L 61.537358 231.761321 
L 63.177331 235.003854 
L 67.405733 235.670127 
L 389.577124 235.59825 
L 393.603657 234.853962 
L 395.378267 231.691491 
L 394.874886 228.946931 
L 392.093271 226.620328 
L 392.093271 226.620328 
" clip-path="url(#pf2cbbb50f9)" style="fill: none; stroke: #999999; stroke-opacity: 0.6; stroke-width: 0.8; stroke-linecap: square"/>
   </g>
   <g id="line2d_3">
    <path d="M 392.093271 226.620328 
L 391.473081 218.410391 
L 390.441171 210.241984 
L 389.000149 202.135742 
L 387.153654 194.112142 
L 384.906351 186.191452 
L 382.263916 178.39368 
L 379.233026 170.738525 
L 375.821336 163.245323 
L 372.037463 155.933003 
L 367.890968 148.820038 
L 363.392324 141.924394 
L 358.552895 135.263491 
L 353.384905 128.854155 
L 347.90141 122.712576 
L 342.116262 116.854269 
L 336.044074 111.294032 
L 329.700185 106.045911 
L 323.100621 101.123163 
L 316.262052 96.538223 
L 309.201753 92.302673 
L 301.937559 88.427212 
L 294.48782 84.921632 
L 286.871356 81.794785 
L 279.107404 79.054573 
L 271.215579 76.707915 
L 263.215816 74.760741 
L 255.128322 73.217969 
L 246.973527 72.083497 
L 238.772032 71.360189 
L 230.544553 71.049873 
L 222.311874 71.153334 
L 214.094792 71.670309 
L 205.914064 72.599492 
L 197.790354 73.938537 
L 189.744184 75.684062 
L 181.79588 77.831656 
L 173.965518 80.375894 
L 166.272881 83.31035 
L 158.7374 86.627611 
L 151.378109 90.319298 
L 144.2136 94.376084 
L 137.261971 98.787722 
L 130.540781 103.543068 
L 124.06701 108.63011 
L 117.857011 114.035996 
L 111.92647 119.747072 
L 106.290368 125.74891 
L 100.962944 132.02635 
L 95.957654 138.563534 
L 91.287142 145.343949 
L 86.963206 152.350466 
L 82.99677 159.565387 
L 79.397852 166.970486 
L 76.175544 174.547058 
L 73.337986 182.275962 
L 70.892345 190.137676 
L 68.844799 198.11234 
L 67.200521 206.179808 
L 65.963664 214.319703 
L 65.137353 222.511462 
L 64.878846 226.620328 
L 62.104375 228.966781 
L 61.537358 231.761321 
L 63.177331 235.003854 
L 67.405733 235.670127 
L 389.577124 235.59825 
L 393.603657 234.853962 
L 395.378267 231.691491 
L 394.874886 228.946931 
L 392.093271 226.620328 
L 392.093271 226.620328 
" clip-path="url(#pf2cbbb50f9)" style="fill: none; stroke: #999999; stroke-opacity: 0.6; stroke-width: 0.8; stroke-linecap: square"/>
   </g>
   <g id="line2d_4">
    <path d="M 392.093271 226.620328 
L 391.473081 218.410391 
L 390.441171 210.241984 
L 389.000149 202.135742 
L 387.153654 194.112142 
L 384.906351 186.191452 
L 382.263916 178.39368 
L 379.233026 170.738525 
L 375.821336 163.245323 
L 372.037463 155.933003 
L 367.890968 148.820038 
L 363.392324 141.924394 
L 358.552895 135.263491 
L 353.384905 128.854155 
L 347.90141 122.712576 
L 342.116262 116.854269 
L 336.044074 111.294032 
L 329.700185 106.045911 
L 323.100621 101.123163 
L 316.262052 96.538223 
L 309.201753 92.302673 
L 301.937559 88.427212 
L 294.48782 84.921632 
L 286.871356 81.794785 
L 279.107404 79.054573 
L 271.215579 76.707915 
L 263.215816 74.760741 
L 255.128322 73.217969 
L 246.973527 72.083497 
L 238.772032 71.360189 
L 230.544553 71.049873 
L 222.311874 71.153334 
L 214.094792 71.670309 
L 205.914064 72.599492 
L 197.790354 73.938537 
L 189.744184 75.684062 
L 181.79588 77.831656 
L 173.965518 80.375894 
L 166.272881 83.31035 
L 158.7374 86.627611 
L 151.378109 90.319298 
L 144.2136 94.376084 
L 137.261971 98.787722 
L 130.540781 103.543068 
L 124.06701 108.63011 
L 117.857011 114.035996 
L 111.92647 119.747072 
L 106.290368 125.74891 
L 100.962944 132.02635 
L 95.957654 138.563534 
L 91.287142 145.343949 
L 86.963206 152.350466 
L 82.99677 159.565387 
L 79.397852 166.970486 
L 76.175544 174.547058 
L 73.337986 182.275962 
L 70.892345 190.137676 
L 68.844799 198.11234 
L 67.200521 206.179808 
L 65.963664 214.319703 
L 65.137353 222.511462 
L 64.878846 226.620328 
L 62.104375 228.966781 
L 61.537358 231.761321 
L 63.177331 235.003854 
L 67.405733 235.670127 
L 389.577124 235.59825 
L 393.603657 234.853962 
L 395.378267 231.691491 
L 394.874886 228.946931 
L 392.093271 226.620328 
L 392.093271 226.620328 
" clip-path="url(#pf2cbbb50f9)" style="fill: none; stroke: #999999; stroke-opacity: 0.6; stroke-width: 0.8; stroke-linecap: square"/>
   </g>
   <g id="line2d_5">
    <path d="M 392.093271 226.620328 
L 391.473081 218.410391 
L 390.441171 210.241984 
L 389.000149 202.135742 
L 387.153654 194.112142 
L 384.906351 186.191452 
L 382.263916 178.39368 
L 379.233026 170.738525 
L 375.821336 163.245323 
L 372.037463 155.933003 
L 367.890968 148.820038 
L 363.392324 141.924394 
L 358.552895 135.263491 
L 353.384905 128.854155 
L 347.90141 122.712576 
L 342.116262 116.854269 
L 336.044074 111.294032 
L 329.700185 106.045911 
L 323.100621 101.123163 
L 316.262052 96.538223 
L 309.201753 92.302673 
L 301.937559 88.427212 
L 294.48782 84.921632 
L 286.871356 81.794785 
L 279.107404 79.054573 
L 271.215579 76.707915 
L 263.215816 74.760741 
L 255.128322 73.217969 
L 246.973527 72.083497 
L 238.772032 71.360189 
L 230.544553 71.049873 
L 222.311874 71.153334 
L 214.094792 71.670309 
L 205.914064 72.599492 
L 197.790354 73.938537 
L 189.744184 75.684062 
L 181.79588 77.831656 
L 173.965518 80.375894 
L 166.272881 83.31035 
L 158.7374 86.627611 
L 151.378109 90.319298 
L 144.2136 94.376084 
L 137.261971 98.787722 
L 130.540781 103.543068 
L 124.06701 108.63011 
L 117.857011 114.035996 
L 111.92647 119.747072 
L 106.290368 125.74891 
L 100.962944 132.02635 
L 95.957654 138.563534 
L 91.287142 145.343949 
L 86.963206 152.350466 
L 82.99677 159.565387 
L 79.397852 166.970486 
L 76.175544 174.547058 
L 73.337986 182.275962 
L 70.892345 190.137676 
L 68.844799 198.11234 
L 67.200521 206.179808 
L 65.963664 214.319703 
L 65.137353 222.511462 
L 64.878846 226.620328 
L 62.104375 228.966781 
L 61.537358 231.761321 
L 63.177331 235.003854 
L 67.405733 235.670127 
L 389.577124 235.59825 
L 393.603657 234.853962 
L 395.378267 231.691491 
L 394.874886 228.946931 
L 392.093271 226.620328 
L 392.093271 226.620328 
" clip-path="url(#pf2cbbb50f9)" style="fill: none; stroke: #999999; stroke-opacity: 0.6; stroke-width: 0.8; stroke-linecap: square"/>
   </g>
   <g id="line2d_6">
    <path d="M 392.093271 226.620328 
L 391.473081 218.410391 
L 390.441171 210.241984 
L 389.000149 202.135742 
L 387.153654 194.112142 
L 384.906351 186.191452 
L 382.263916 178.39368 
L 379.233026 170.738525 
L 375.821336 163.245323 
L 372.037463 155.933003 
L 367.890968 148.820038 
L 363.392324 141.924394 
L 358.552895 135.263491 
L 353.384905 128.854155 
L 347.90141 122.712576 
L 342.116262 116.854269 
L 336.044074 111.294032 
L 329.700185 106.045911 
L 323.100621 101.123163 
L 316.262052 96.538223 
L 309.201753 92.302673 
L 301.937559 88.427212 
L 294.48782 84.921632 
L 286.871356 81.794785 
L 279.107404 79.054573 
L 271.215579 76.707915 
L 263.215816 74.760741 
L 255.128322 73.217969 
L 246.973527 72.083497 
L 238.772032 71.360189 
L 230.544553 71.049873 
L 222.311874 71.153334 
L 214.094792 71.670309 
L 205.914064 72.599492 
L 197.790354 73.938537 
L 189.744184 75.684062 
L 181.79588 77.831656 
L 173.965518 80.375894 
L 166.272881 83.31035 
L 158.7374 86.627611 
L 151.378109 90.319298 
L 144.2136 94.376084 
L 137.261971 98.787722 
L 130.540781 103.543068 
L 124.06701 108.63011 
L 117.857011 114.035996 
L 111.92647 119.747072 
L 106.290368 125.74891 
L 100.962944 132.02635 
L 95.957654 138.563534 
L 91.287142 145.343949 
L 86.963206 152.350466 
L 82.99677 159.565387 
L 79.397852 166.970486 
L 76.175544 174.547058 
L 73.337986 182.275962 
L 70.892345 190.137676 
L 68.844799 198.11234 
L 67.200521 206.179808 
L 65.963664 214.319703 
L 65.137353 222.511462 
L 64.878846 226.620328 
L 62.104375 228.966781 
L 61.537358 231.761321 
L 63.177331 235.003854 
L 67.405733 235.670127 
L 389.577124 235.59825 
L 393.603657 234.853962 
L 395.378267 231.691491 
L 394.874886 228.946931 
L 392.093271 226.620328 
L 392.093271 226.620328 
" clip-path="url(#pf2cbbb50f9)" style="fill: none; stroke: #999999; stroke-opacity: 0.6; stroke-width: 0.8; stroke-linecap: square"/>
   </g>
   <g id="line2d_7">
    <path d="M 392.093271 226.620328 
L 391.473081 218.410391 
L 390.441171 210.241984 
L 389.000149 202.135742 
L 387.153654 194.112142 
L 384.906351 186.191452 
L 382.263916 178.39368 
L 379.233026 170.738525 
L 375.821336 163.245323 
L 372.037463 155.933003 
L 367.890968 148.820038 
L 363.392324 141.924394 
L 358.552895 135.263491 
L 353.384905 128.854155 
L 347.90141 122.712576 
L 342.116262 116.854269 
L 336.044074 111.294032 
L 329.700185 106.045911 
L 323.100621 101.123163 
L 316.262052 96.538223 
L 309.201753 92.302673 
L 301.937559 88.427212 
L 294.48782 84.921632 
L 286.871356 81.794785 
L 279.107404 79.054573 
L 271.215579 76.707915 
L 263.215816 74.760741 
L 255.128322 73.217969 
L 246.973527 72.083497 
L 238.772032 71.360189 
L 230.544553 71.049873 
L 222.311874 71.153334 
L 214.094792 71.670309 
L 205.914064 72.599492 
L 197.790354 73.938537 
L 189.744184 75.684062 
L 181.79588 77.831656 
L 173.965518 80.375894 
L 166.272881 83.31035 
L 158.7374 86.627611 
L 151.378109 90.319298 
L 144.2136 94.376084 
L 137.261971 98.787722 
L 130.540781 103.543068 
L 124.06701 108.63011 
L 117.857011 114.035996 
L 111.92647 119.747072 
L 106.290368 125.74891 
L 100.962944 132.02635 
L 95.957654 138.563534 
L 91.287142 145.343949 
L 86.963206 152.350466 
L 82.99677 159.565387 
L 79.397852 166.970486 
L 76.175544 174.547058 
L 73.337986 182.275962 
L 70.892345 190.137676 
L 68.844799 198.11234 
L 67.200521 206.179808 
L 65.963664 214.319703 
L 65.137353 222.511462 
L 64.878846 226.620328 
L 62.104375 228.966781 
L 61.537358 231.761321 
L 63.177331 235.003854 
L 67.405733 235.670127 
L 389.577124 235.59825 
L 393.603657 234.853962 
L 395.378267 231.691491 
L 394.874886 228.946931 
L 392.093271 226.620328 
L 392.093271 226.620328 
" clip-path="url(#pf2cbbb50f9)" style="fill: none; stroke: #999999; stroke-opacity: 0.6; stroke-width: 0.8; stroke-linecap: square"/>
   </g>
   <g id="line2d_8">
    <path d="M 392.093271 226.620328 
L 391.473081 218.410391 
L 390.441171 210.241984 
L 389.000149 202.135742 
L 387.153654 194.112142 
L 384.906351 186.191452 
L 382.263916 178.39368 
L 379.233026 170.738525 
L 375.821336 163.245323 
L 372.037463 155.933003 
L 367.890968 148.820038 
L 363.392324 141.924394 
L 358.552895 135.263491 
L 353.384905 128.854155 
L 347.90141 122.712576 
L 342.116262 116.854269 
L 336.044074 111.294032 
L 329.700185 106.045911 
L 323.100621 101.123163 
L 316.262052 96.538223 
L 309.201753 92.302673 
L 301.937559 88.427212 
L 294.48782 84.921632 
L 286.871356 81.794785 
L 279.107404 79.054573 
L 271.215579 76.707915 
L 263.215816 74.760741 
L 255.128322 73.217969 
L 246.973527 72.083497 
L 238.772032 71.360189 
L 230.544553 71.049873 
L 222.311874 71.153334 
L 214.094792 71.670309 
L 205.914064 72.599492 
L 197.790354 73.938537 
L 189.744184 75.684062 
L 181.79588 77.831656 
L 173.965518 80.375894 
L 166.272881 83.31035 
L 158.7374 86.627611 
L 151.378109 90.319298 
L 144.2136 94.376084 
L 137.261971 98.787722 
L 130.540781 103.543068 
L 124.06701 108.63011 
L 117.857011 114.035996 
L 111.92647 119.747072 
L 106.290368 125.74891 
L 100.962944 132.02635 
L 95.957654 138.563534 
L 91.287142 145.343949 
L 86.963206 152.350466 
L 82.99677 159.565387 
L 79.397852 166.970486 
L 76.175544 174.547058 
L 73.337986 182.275962 
L 70.892345 190.137676 
L 68.844799 198.11234 
L 67.200521 206.179808 
L 65.963664 214.319703 
L 65.137353 222.511462 
L 64.878846 226.620328 
L 62.104375 228.966781 
L 61.537358 231.761321 
L 63.177331 235.003854 
L 67.405733 235.670127 
L 389.577124 235.59825 
L 393.603657 234.853962 
L 395.378267 231.691491 
L 394.874886 228.946931 
L 392.093271 226.620328 
L 392.093271 226.620328 
" clip-path="url(#pf2cbbb50f9)" style="fill: none; stroke: #999999; stroke-opacity: 0.6; stroke-width: 0.8; stroke-linecap: square"/>
   </g>
   <g id="line2d_9">
    <path d="M 392.093271 226.620328 
L 391.473081 218.410391 
L 390.441171 210.241984 
L 389.000149 202.135742 
L 387.153654 194.112142 
L 384.906351 186.191452 
L 382.263916 178.39368 
L 379.233026 170.738525 
L 375.821336 163.245323 
L 372.037463 155.933003 
L 367.890968 148.820038 
L 363.392324 141.924394 
L 358.552895 135.263491 
L 353.384905 128.854155 
L 347.90141 122.712576 
L 342.116262 116.854269 
L 336.044074 111.294032 
L 329.700185 106.045911 
L 323.100621 101.123163 
L 316.262052 96.538223 
L 309.201753 92.302673 
L 301.937559 88.427212 
L 294.48782 84.921632 
L 286.871356 81.794785 
L 279.107404 79.054573 
L 271.215579 76.707915 
L 263.215816 74.760741 
L 255.128322 73.217969 
L 246.973527 72.083497 
L 238.772032 71.360189 
L 230.544553 71.049873 
L 222.311874 71.153334 
L 214.094792 71.670309 
L 205.914064 72.599492 
L 197.790354 73.938537 
L 189.744184 75.684062 
L 181.79588 77.831656 
L 173.965518 80.375894 
L 166.272881 83.31035 
L 158.7374 86.627611 
L 151.378109 90.319298 
L 144.2136 94.376084 
L 137.261971 98.787722 
L 130.540781 103.543068 
L 124.06701 108.63011 
L 117.857011 114.035996 
L 111.92647 119.747072 
L 106.290368 125.74891 
L 100.962944 132.02635 
L 95.957654 138.563534 
L 91.287142 145.343949 
L 86.963206 152.350466 
L 82.99677 159.565387 
L 79.397852 166.970486 
L 76.175544 174.547058 
L 73.337986 182.275962 
L 70.892345 190.137676 
L 68.844799 198.11234 
L 67.200521 206.179808 
L 65.963664 214.319703 
L 65.137353 222.511462 
L 64.878846 226.620328 
L 62.104375 228.966781 
L 61.537358 231.761321 
L 63.177331 235.003854 
L 67.405733 235.670127 
L 389.577124 235.59825 
L 393.603657 234.853962 
L 395.378267 231.691491 
L 394.874886 228.946931 
L 392.093271 226.620328 
L 392.093271 226.620328 
" clip-path="url(#pf2cbbb50f9)" style="fill: none; stroke: #999999; stroke-opacity: 0.6; stroke-width: 0.8; stroke-linecap: square"/>
   </g>
   <g id="line2d_10">
    <path d="M 392.093271 226.620328 
L 391.473081 218.410391 
L 390.441171 210.241984 
L 389.000149 202.135742 
L 387.153654 194.112142 
L 384.906351 186.191452 
L 382.263916 178.39368 
L 379.233026 170.738525 
L 375.821336 163.245323 
L 372.037463 155.933003 
L 367.890968 148.820038 
L 363.392324 141.924394 
L 358.552895 135.263491 
L 353.384905 128.854155 
L 347.90141 122.712576 
L 342.116262 116.854269 
L 336.044074 111.294032 
L 329.700185 106.045911 
L 323.100621 101.123163 
L 316.262052 96.538223 
L 309.201753 92.302673 
L 301.937559 88.427212 
L 294.48782 84.921632 
L 286.871356 81.794785 
L 279.107404 79.054573 
L 271.215579 76.707915 
L 263.215816 74.760741 
L 255.128322 73.217969 
L 246.973527 72.083497 
L 238.772032 71.360189 
L 230.544553 71.049873 
L 222.311874 71.153334 
L 214.094792 71.670309 
L 205.914064 72.599492 
L 197.790354 73.938537 
L 189.744184 75.684062 
L 181.79588 77.831656 
L 173.965518 80.375894 
L 166.272881 83.31035 
L 158.7374 86.627611 
L 151.378109 90.319298 
L 144.2136 94.376084 
L 137.261971 98.787722 
L 130.540781 103.543068 
L 124.06701 108.63011 
L 117.857011 114.035996 
L 111.92647 119.747072 
L 106.290368 125.74891 
L 100.962944 132.02635 
L 95.957654 138.563534 
L 91.287142 145.343949 
L 86.963206 152.350466 
L 82.99677 159.565387 
L 79.397852 166.970486 
L 76.175544 174.547058 
L 73.337986 182.275962 
L 70.892345 190.137676 
L 68.844799 198.11234 
L 67.200521 206.179808 
L 65.963664 214.319703 
L 65.137353 222.511462 
L 64.878846 226.620328 
L 62.104375 228.966781 
L 61.537358 231.761321 
L 63.177331 235.003854 
L 67.405733 235.670127 
L 389.577124 235.59825 
L 393.603657 234.853962 
L 395.378267 231.691491 
L 394.874886 228.946931 
L 392.093271 226.620328 
L 392.093271 226.620328 
" clip-path="url(#pf2cbbb50f9)" style="fill: none; stroke: #999999; stroke-opacity: 0.6; stroke-width: 0.8; stroke-linecap: square"/>
   </g>
   <g id="line2d_11">
    <path d="M 392.093271 226.620328 
L 391.473081 218.410391 
L 390.441171 210.241984 
L 389.000149 202.135742 
L 387.153654 194.112142 
L 384.906351 186.191452 
L 382.263916 178.39368 
L 379.233026 170.738525 
L 375.821336 163.245323 
L 372.037463 155.933003 
L 367.890968 148.820038 
L 363.392324 141.924394 
L 358.552895 135.263491 
L 353.384905 128.854155 
L 347.90141 122.712576 
L 342.116262 116.854269 
L 336.044074 111.294032 
L 329.700185 106.045911 
L 323.100621 101.123163 
L 316.262052 96.538223 
L 309.201753 92.302673 
L 301.937559 88.427212 
L 294.48782 84.921632 
L 286.871356 81.794785 
L 279.107404 79.054573 
L 271.215579 76.707915 
L 263.215816 74.760741 
L 255.128322 73.217969 
L 246.973527 72.083497 
L 238.772032 71.360189 
L 230.544553 71.049873 
L 222.311874 71.153334 
L 214.094792 71.670309 
L 205.914064 72.599492 
L 197.790354 73.938537 
L 189.744184 75.684062 
L 181.79588 77.831656 
L 173.965518 80.375894 
L 166.272881 83.31035 
L 158.7374 86.627611 
L 151.378109 90.319298 
L 144.2136 94.376084 
L 137.261971 98.787722 
L 130.540781 103.543068 
L 124.06701 108.63011 
L 117.857011 114.035996 
L 111.92647 119.747072 
L 106.290368 125.74891 
L 100.962944 132.02635 
L 95.957654 138.563534 
L 91.287142 145.343949 
L 86.963206 152.350466 
L 82.99677 159.565387 
L 79.397852 166.970486 
L 76.175544 174.547058 
L 73.337986 182.275962 
L 70.892345 190.137676 
L 68.844799 198.11234 
L 67.200521 206.179808 
L 65.963664 214.319703 
L 65.137353 222.511462 
L 64.878846 226.620328 
L 62.104375 228.966781 
L 61.537358 231.761321 
L 63.177331 235.003854 
L 67.405733 235.670127 
L 389.577124 235.59825 
L 393.603657 234.853962 
L 395.378267 231.691491 
L 394.874886 228.946931 
L 392.093271 226.620328 
L 392.093271 226.620328 
" clip-path="url(#pf2cbbb50f9)" style="fill: none; stroke: #999999; stroke-opacity: 0.6; stroke-width: 0.8; stroke-linecap: square"/>
   </g>
   <g id="line2d_12">
    <path d="M 392.093271 226.620328 
L 391.473081 218.410391 
L 390.441171 210.241984 
L 389.000149 202.135742 
L 387.153654 194.112142 
L 384.906351 186.191452 
L 382.263916 178.39368 
L 379.233026 170.738525 
L 375.821336 163.245323 
L 372.037463 155.933003 
L 367.890968 148.820038 
L 363.392324 141.924394 
L 358.552895 135.263491 
L 353.384905 128.854155 
L 347.90141 122.712576 
L 342.116262 116.854269 
L 336.044074 111.294032 
L 329.700185 106.045911 
L 323.100621 101.123163 
L 316.262052 96.538223 
L 309.201753 92.302673 
L 301.937559 88.427212 
L 294.48782 84.921632 
L 286.871356 81.794785 
L 279.107404 79.054573 
L 271.215579 76.707915 
L 263.215816 74.760741 
L 255.128322 73.217969 
L 246.973527 72.083497 
L 238.772032 71.360189 
L 230.544553 71.049873 
L 222.311874 71.153334 
L 214.094792 71.670309 
L 205.914064 72.599492 
L 197.790354 73.938537 
L 189.744184 75.684062 
L 181.79588 77.831656 
L 173.965518 80.375894 
L 166.272881 83.31035 
L 158.7374 86.627611 
L 151.378109 90.319298 
L 144.2136 94.376084 
L 137.261971 98.787722 
L 130.540781 103.543068 
L 124.06701 108.63011 
L 117.857011 114.035996 
L 111.92647 119.747072 
L 106.290368 125.74891 
L 100.962944 132.02635 
L 95.957654 138.563534 
L 91.287142 145.343949 
L 86.963206 152.350466 
L 82.99677 159.565387 
L 79.397852 166.970486 
L 76.175544 174.547058 
L 73.337986 182.275962 
L 70.892345 190.137676 
L 68.844799 198.11234 
L 67.200521 206.179808 
L 65.963664 214.319703 
L 65.137353 222.511462 
L 64.878846 226.620328 
L 62.104375 228.966781 
L 61.537358 231.761321 
L 63.177331 235.003854 
L 67.405733 235.670127 
L 389.577124 235.59825 
L 393.603657 234.853962 
L 395.378267 231.691491 
L 394.874886 228.946931 
L 392.093271 226.620328 
L 392.093271 226.620328 
" clip-path="url(#pf2cbbb50f9)" style="fill: none; stroke: #999999; stroke-opacity: 0.6; stroke-width: 0.8; stroke-linecap: square"/>
   </g>
   <g id="line2d_13">
    <path d="M 392.093271 226.620328 
L 391.473081 218.410391 
L 390.441171 210.241984 
L 389.000149 202.135742 
L 387.153654 194.112142 
L 384.906351 186.191452 
L 382.263916 178.39368 
L 379.233026 170.738525 
L 375.821336 163.245323 
L 372.037463 155.933003 
L 367.890968 148.820038 
L 363.392324 141.924394 
L 358.552895 135.263491 
L 353.384905 128.854155 
L 347.90141 122.712576 
L 342.116262 116.854269 
L 336.044074 111.294032 
L 329.700185 106.045911 
L 323.100621 101.123163 
L 316.262052 96.538223 
L 309.201753 92.302673 
L 301.937559 88.427212 
L 294.48782 84.921632 
L 286.871356 81.794785 
L 279.107404 79.054573 
L 271.215579 76.707915 
L 263.215816 74.760741 
L 255.128322 73.217969 
L 246.973527 72.083497 
L 238.772032 71.360189 
L 230.544553 71.049873 
L 222.311874 71.153334 
L 214.094792 71.670309 
L 205.914064 72.599492 
L 197.790354 73.938537 
L 189.744184 75.684062 
L 181.79588 77.831656 
L 173.965518 80.375894 
L 166.272881 83.31035 
L 158.7374 86.627611 
L 151.378109 90.319298 
L 144.2136 94.376084 
L 137.261971 98.787722 
L 130.540781 103.543068 
L 124.06701 108.63011 
L 117.857011 114.035996 
L 111.92647 119.747072 
L 106.290368 125.74891 
L 100.962944 132.02635 
L 95.957654 138.563534 
L 91.287142 145.343949 
L 86.963206 152.350466 
L 82.99677 159.565387 
L 79.397852 166.970486 
L 76.175544 174.547058 
L 73.337986 182.275962 
L 70.892345 190.137676 
L 68.844799 198.11234 
L 67.200521 206.179808 
L 65.963664 214.319703 
L 65.137353 222.511462 
L 64.878846 226.620328 
L 62.104375 228.966781 
L 61.537358 231.761321 
L 63.177331 235.003854 
L 67.405733 235.670127 
L 389.577124 235.59825 
L 393.603657 234.853962 
L 395.378267 231.691491 
L 394.874886 228.946931 
L 392.093271 226.620328 
L 392.093271 226.620328 
" clip-path="url(#pf2cbbb50f9)" style="fill: none; stroke: #999999; stroke-opacity: 0.6; stroke-width: 0.8; stroke-linecap: square"/>
   </g>
   <g id="line2d_14">
    <path d="M 392.093271 226.620328 
L 391.473081 218.410391 
L 390.441171 210.241984 
L 389.000149 202.135742 
L 387.153654 194.112142 
L 384.906351 186.191452 
L 382.263916 178.39368 
L 379.233026 170.738525 
L 375.821336 163.245323 
L 372.037463 155.933003 
L 367.890968 148.820038 
L 363.392324 141.924394 
L 358.552895 135.263491 
L 353.384905 128.854155 
L 347.90141 122.712576 
L 342.116262 116.854269 
L 336.044074 111.294032 
L 329.700185 106.045911 
L 323.100621 101.123163 
L 316.262052 96.538223 
L 309.201753 92.302673 
L 301.937559 88.427212 
L 294.48782 84.921632 
L 286.871356 81.794785 
L 279.107404 79.054573 
L 271.215579 76.707915 
L 263.215816 74.760741 
L 255.128322 73.217969 
L 246.973527 72.083497 
L 238.772032 71.360189 
L 230.544553 71.049873 
L 222.311874 71.153334 
L 214.094792 71.670309 
L 205.914064 72.599492 
L 197.790354 73.938537 
L 189.744184 75.684062 
L 181.79588 77.831656 
L 173.965518 80.375894 
L 166.272881 83.31035 
L 158.7374 86.627611 
L 151.378109 90.319298 
L 144.2136 94.376084 
L 137.261971 98.787722 
L 130.540781 103.543068 
L 124.06701 108.63011 
L 117.857011 114.035996 
L 111.92647 119.747072 
L 106.290368 125.74891 
L 100.962944 132.02635 
L 95.957654 138.563534 
L 91.287142 145.343949 
L 86.963206 152.350466 
L 82.99677 159.565387 
L 79.397852 166.970486 
L 76.175544 174.547058 
L 73.337986 182.275962 
L 70.892345 190.137676 
L 68.844799 198.11234 
L 67.200521 206.179808 
L 65.963664 214.319703 
L 65.137353 222.511462 
L 64.878846 226.620328 
L 62.104375 228.966781 
L 61.537358 231.761321 
L 63.177331 235.003854 
L 67.405733 235.670127 
L 389.577124 235.59825 
L 393.603657 234.853962 
L 395.378267 231.691491 
L 394.874886 228.946931 
L 392.093271 226.620328 
L 392.093271 226.620328 
" clip-path="url(#pf2cbbb50f9)" style="fill: none; stroke: #999999; stroke-opacity: 0.6; stroke-width: 0.8; stroke-linecap: square"/>
   </g>
   <g id="line2d_15">
    <path d="M 392.093271 226.620328 
L 391.473081 218.410391 
L 390.441171 210.241984 
L 389.000149 202.135742 
L 387.153654 194.112142 
L 384.906351 186.191452 
L 382.263916 178.39368 
L 379.233026 170.738525 
L 375.821336 163.245323 
L 372.037463 155.933003 
L 367.890968 148.820038 
L 363.392324 141.924394 
L 358.552895 135.263491 
L 353.384905 128.854155 
L 347.90141 122.712576 
L 342.116262 116.854269 
L 336.044074 111.294032 
L 329.700185 106.045911 
L 323.100621 101.123163 
L 316.262052 96.538223 
L 309.201753 92.302673 
L 301.937559 88.427212 
L 294.48782 84.921632 
L 286.871356 81.794785 
L 279.107404 79.054573 
L 271.215579 76.707915 
L 263.215816 74.760741 
L 255.128322 73.217969 
L 246.973527 72.083497 
L 238.772032 71.360189 
L 230.544553 71.049873 
L 222.311874 71.153334 
L 214.094792 71.670309 
L 205.914064 72.599492 
L 197.790354 73.938537 
L 189.744184 75.684062 
L 181.79588 77.831656 
L 173.965518 80.375894 
L 166.272881 83.31035 
L 158.7374 86.627611 
L 151.378109 90.319298 
L 144.2136 94.376084 
L 137.261971 98.787722 
L 130.540781 103.543068 
L 124.06701 108.63011 
L 117.857011 114.035996 
L 111.92647 119.747072 
L 106.290368 125.74891 
L 100.962944 132.02635 
L 95.957654 138.563534 
L 91.287142 145.343949 
L 86.963206 152.350466 
L 82.99677 159.565387 
L 79.397852 166.970486 
L 76.175544 174.547058 
L 73.337986 182.275962 
L 70.892345 190.137676 
L 68.844799 198.11234 
L 67.200521 206.179808 
L 65.963664 214.319703 
L 65.137353 222.511462 
L 64.878846 226.620328 
L 62.104375 228.966781 
L 61.537358 231.761321 
L 63.177331 235.003854 
L 67.405733 235.670127 
L 389.577124 235.59825 
L 393.603657 234.853962 
L 395.378267 231.691491 
L 394.874886 228.946931 
L 392.093271 226.620328 
L 392.093271 226.620328 
" clip-path="url(#pf2cbbb50f9)" style="fill: none; stroke: #999999; stroke-opacity: 0.6; stroke-width: 0.8; stroke-linecap: square"/>
   </g>
   <g id="line2d_16">
    <path d="M 392.093271 226.620328 
L 391.473081 218.410391 
L 390.441171 210.241984 
L 389.000149 202.135742 
L 387.153654 194.112142 
L 384.906351 186.191452 
L 382.263916 178.39368 
L 379.233026 170.738525 
L 375.821336 163.245323 
L 372.037463 155.933003 
L 367.890968 148.820038 
L 363.392324 141.924394 
L 358.552895 135.263491 
L 353.384905 128.854155 
L 347.90141 122.712576 
L 342.116262 116.854269 
L 336.044074 111.294032 
L 329.700185 106.045911 
L 323.100621 101.123163 
L 316.262052 96.538223 
L 309.201753 92.302673 
L 301.937559 88.427212 
L 294.48782 84.921632 
L 286.871356 81.794785 
L 279.107404 79.054573 
L 271.215579 76.707915 
L 263.215816 74.760741 
L 255.128322 73.217969 
L 246.973527 72.083497 
L 238.772032 71.360189 
L 230.544553 71.049873 
L 222.311874 71.153334 
L 214.094792 71.670309 
L 205.914064 72.599492 
L 197.790354 73.938537 
L 189.744184 75.684062 
L 181.79588 77.831656 
L 173.965518 80.375894 
L 166.272881 83.31035 
L 158.7374 86.627611 
L 151.378109 90.319298 
L 144.2136 94.376084 
L 137.261971 98.787722 
L 130.540781 103.543068 
L 124.06701 108.63011 
L 117.857011 114.035996 
L 111.92647 119.747072 
L 106.290368 125.74891 
L 100.962944 132.02635 
L 95.957654 138.563534 
L 91.287142 145.343949 
L 86.963206 152.350466 
L 82.99677 159.565387 
L 79.397852 166.970486 
L 76.175544 174.547058 
L 73.337986 182.275962 
L 70.892345 190.137676 
L 68.844799 198.11234 
L 67.200521 206.179808 
L 65.963664 214.319703 
L 65.137353 222.511462 
L 64.878846 226.620328 
L 62.104375 228.966781 
L 61.537358 231.761321 
L 63.177331 235.003854 
L 67.405733 235.670127 
L 389.577124 235.59825 
L 393.603657 234.853962 
L 395.378267 231.691491 
L 394.874886 228.946931 
L 392.093271 226.620328 
L 392.093271 226.620328 
" clip-path="url(#pf2cbbb50f9)" style="fill: none; stroke: #999999; stroke-opacity: 0.6; stroke-width: 0.8; stroke-linecap: square"/>
   </g>
   <g id="line2d_17">
    <path d="M 392.093271 226.620328 
L 391.473081 218.410391 
L 390.441171 210.241984 
L 389.000149 202.135742 
L 387.153654 194.112142 
L 384.906351 186.191452 
L 382.263916 178.39368 
L 379.233026 170.738525 
L 375.821336 163.245323 
L 372.037463 155.933003 
L 367.890968 148.820038 
L 363.392324 141.924394 
L 358.552895 135.263491 
L 353.384905 128.854155 
L 347.90141 122.712576 
L 342.116262 116.854269 
L 336.044074 111.294032 
L 329.700185 106.045911 
L 323.100621 101.123163 
L 316.262052 96.538223 
L 309.201753 92.302673 
L 301.937559 88.427212 
L 294.48782 84.921632 
L 286.871356 81.794785 
L 279.107404 79.054573 
L 271.215579 76.707915 
L 263.215816 74.760741 
L 255.128322 73.217969 
L 246.973527 72.083497 
L 238.772032 71.360189 
L 230.544553 71.049873 
L 222.311874 71.153334 
L 214.094792 71.670309 
L 205.914064 72.599492 
L 197.790354 73.938537 
L 189.744184 75.684062 
L 181.79588 77.831656 
L 173.965518 80.375894 
L 166.272881 83.31035 
L 158.7374 86.627611 
L 151.378109 90.319298 
L 144.2136 94.376084 
L 137.261971 98.787722 
L 130.540781 103.543068 
L 124.06701 108.63011 
L 117.857011 114.035996 
L 111.92647 119.747072 
L 106.290368 125.74891 
L 100.962944 132.02635 
L 95.957654 138.563534 
L 91.287142 145.343949 
L 86.963206 152.350466 
L 82.99677 159.565387 
L 79.397852 166.970486 
L 76.175544 174.547058 
L 73.337986 182.275962 
L 70.892345 190.137676 
L 68.844799 198.11234 
L 67.200521 206.179808 
L 65.963664 214.319703 
L 65.137353 222.511462 
L 64.878846 226.620328 
L 62.104375 228.966781 
L 61.537358 231.761321 
L 63.177331 235.003854 
L 67.405733 235.670127 
L 389.577124 235.59825 
L 393.603657 234.853962 
L 395.378267 231.691491 
L 394.874886 228.946931 
L 392.093271 226.620328 
L 392.093271 226.620328 
" clip-path="url(#pf2cbbb50f9)" style="fill: none; stroke: #999999; stroke-opacity: 0.6; stroke-width: 0.8; stroke-linecap: square"/>
   </g>
   <g id="line2d_18">
    <path d="M 392.093271 226.620328 
L 391.473081 218.410391 
L 390.441171 210.241984 
L 389.000149 202.135742 
L 387.153654 194.112142 
L 384.906351 186.191452 
L 382.263916 178.39368 
L 379.233026 170.738525 
L 375.821336 163.245323 
L 372.037463 155.933003 
L 367.890968 148.820038 
L 363.392324 141.924394 
L 358.552895 135.263491 
L 353.384905 128.854155 
L 347.90141 122.712576 
L 342.116262 116.854269 
L 336.044074 111.294032 
L 329.700185 106.045911 
L 323.100621 101.123163 
L 316.262052 96.538223 
L 309.201753 92.302673 
L 301.937559 88.427212 
L 294.48782 84.921632 
L 286.871356 81.794785 
L 279.107404 79.054573 
L 271.215579 76.707915 
L 263.215816 74.760741 
L 255.128322 73.217969 
L 246.973527 72.083497 
L 238.772032 71.360189 
L 230.544553 71.049873 
L 222.311874 71.153334 
L 214.094792 71.670309 
L 205.914064 72.599492 
L 197.790354 73.938537 
L 189.744184 75.684062 
L 181.79588 77.831656 
L 173.965518 80.375894 
L 166.272881 83.31035 
L 158.7374 86.627611 
L 151.378109 90.319298 
L 144.2136 94.376084 
L 137.261971 98.787722 
L 130.540781 103.543068 
L 124.06701 108.63011 
L 117.857011 114.035996 
L 111.92647 119.747072 
L 106.290368 125.74891 
L 100.962944 132.02635 
L 95.957654 138.563534 
L 91.287142 145.343949 
L 86.963206 152.350466 
L 82.99677 159.565387 
L 79.397852 166.970486 
L 76.175544 174.547058 
L 73.337986 182.275962 
L 70.892345 190.137676 
L 68.844799 198.11234 
L 67.200521 206.179808 
L 65.963664 214.319703 
L 65.137353 222.511462 
L 64.878846 226.620328 
L 62.104375 228.966781 
L 61.537358 231.761321 
L 63.177331 235.003854 
L 67.405733 235.670127 
L 389.577124 235.59825 
L 393.603657 234.853962 
L 395.378267 231.691491 
L 394.874886 228.946931 
L 392.093271 226.620328 
L 392.093271 226.620328 
" clip-path="url(#pf2cbbb50f9)" style="fill: none; stroke: #999999; stroke-opacity: 0.6; stroke-width: 0.8; stroke-linecap: square"/>
   </g>
   <g id="line2d_19">
    <path d="M 392.093271 226.620328 
L 391.473081 218.410391 
L 390.441171 210.241984 
L 389.000149 202.135742 
L 387.153654 194.112142 
L 384.906351 186.191452 
L 382.263916 178.39368 
L 379.233026 170.738525 
L 375.821336 163.245323 
L 372.037463 155.933003 
L 367.890968 148.820038 
L 363.392324 141.924394 
L 358.552895 135.263491 
L 353.384905 128.854155 
L 347.90141 122.712576 
L 342.116262 116.854269 
L 336.044074 111.294032 
L 329.700185 106.045911 
L 323.100621 101.123163 
L 316.262052 96.538223 
L 309.201753 92.302673 
L 301.937559 88.427212 
L 294.48782 84.921632 
L 286.871356 81.794785 
L 279.107404 79.054573 
L 271.215579 76.707915 
L 263.215816 74.760741 
L 255.128322 73.217969 
L 246.973527 72.083497 
L 238.772032 71.360189 
L 230.544553 71.049873 
L 222.311874 71.153334 
L 214.094792 71.670309 
L 205.914064 72.599492 
L 197.790354 73.938537 
L 189.744184 75.684062 
L 181.79588 77.831656 
L 173.965518 80.375894 
L 166.272881 83.31035 
L 158.7374 86.627611 
L 151.378109 90.319298 
L 144.2136 94.376084 
L 137.261971 98.787722 
L 130.540781 103.543068 
L 124.06701 108.63011 
L 117.857011 114.035996 
L 111.92647 119.747072 
L 106.290368 125.74891 
L 100.962944 132.02635 
L 95.957654 138.563534 
L 91.287142 145.343949 
L 86.963206 152.350466 
L 82.99677 159.565387 
L 79.397852 166.970486 
L 76.175544 174.547058 
L 73.337986 182.275962 
L 70.892345 190.137676 
L 68.844799 198.11234 
L 67.200521 206.179808 
L 65.963664 214.319703 
L 65.137353 222.511462 
L 64.878846 226.620328 
L 62.104375 228.966781 
L 61.537358 231.761321 
L 63.177331 235.003854 
L 67.405733 235.670127 
L 389.577124 235.59825 
L 393.603657 234.853962 
L 395.378267 231.691491 
L 394.874886 228.946931 
L 392.093271 226.620328 
L 392.093271 226.620328 
" clip-path="url(#pf2cbbb50f9)" style="fill: none; stroke: #999999; stroke-opacity: 0.6; stroke-width: 0.8; stroke-linecap: square"/>
   </g>
   <g id="line2d_20">
    <path d="M 392.093271 226.620328 
L 391.473081 218.410391 
L 390.441171 210.241984 
L 389.000149 202.135742 
L 387.153654 194.112142 
L 384.906351 186.191452 
L 382.263916 178.39368 
L 379.233026 170.738525 
L 375.821336 163.245323 
L 372.037463 155.933003 
L 367.890968 148.820038 
L 363.392324 141.924394 
L 358.552895 135.263491 
L 353.384905 128.854155 
L 347.90141 122.712576 
L 342.116262 116.854269 
L 336.044074 111.294032 
L 329.700185 106.045911 
L 323.100621 101.123163 
L 316.262052 96.538223 
L 309.201753 92.302673 
L 301.937559 88.427212 
L 294.48782 84.921632 
L 286.871356 81.794785 
L 279.107404 79.054573 
L 271.215579 76.707915 
L 263.215816 74.760741 
L 255.128322 73.217969 
L 246.973527 72.083497 
L 238.772032 71.360189 
L 230.544553 71.049873 
L 222.311874 71.153334 
L 214.094792 71.670309 
L 205.914064 72.599492 
L 197.790354 73.938537 
L 189.744184 75.684062 
L 181.79588 77.831656 
L 173.965518 80.375894 
L 166.272881 83.31035 
L 158.7374 86.627611 
L 151.378109 90.319298 
L 144.2136 94.376084 
L 137.261971 98.787722 
L 130.540781 103.543068 
L 124.06701 108.63011 
L 117.857011 114.035996 
L 111.92647 119.747072 
L 106.290368 125.74891 
L 100.962944 132.02635 
L 95.957654 138.563534 
L 91.287142 145.343949 
L 86.963206 152.350466 
L 82.99677 159.565387 
L 79.397852 166.970486 
L 76.175544 174.547058 
L 73.337986 182.275962 
L 70.892345 190.137676 
L 68.844799 198.11234 
L 67.200521 206.179808 
L 65.963664 214.319703 
L 65.137353 222.511462 
L 64.878846 226.620328 
L 62.104375 228.966781 
L 61.537358 231.761321 
L 63.177331 235.003854 
L 67.405733 235.670127 
L 389.577124 235.59825 
L 393.603657 234.853962 
L 395.378267 231.691491 
L 394.874886 228.946931 
L 392.093271 226.620328 
L 392.093271 226.620328 
" clip-path="url(#pf2cbbb50f9)" style="fill: none; stroke: #999999; stroke-opacity: 0.6; stroke-width: 0.8; stroke-linecap: square"/>
   </g>
   <g id="line2d_21">
    <path d="M 392.093271 226.620328 
L 391.473081 218.410391 
L 390.441171 210.241984 
L 389.000149 202.135742 
L 387.153654 194.112142 
L 384.906351 186.191452 
L 382.263916 178.39368 
L 379.233026 170.738525 
L 375.821336 163.245323 
L 372.037463 155.933003 
L 367.890968 148.820038 
L 363.392324 141.924394 
L 358.552895 135.263491 
L 353.384905 128.854155 
L 347.90141 122.712576 
L 342.116262 116.854269 
L 336.044074 111.294032 
L 329.700185 106.045911 
L 323.100621 101.123163 
L 316.262052 96.538223 
L 309.201753 92.302673 
L 301.937559 88.427212 
L 294.48782 84.921632 
L 286.871356 81.794785 
L 279.107404 79.054573 
L 271.215579 76.707915 
L 263.215816 74.760741 
L 255.128322 73.217969 
L 246.973527 72.083497 
L 238.772032 71.360189 
L 230.544553 71.049873 
L 222.311874 71.153334 
L 214.094792 71.670309 
L 205.914064 72.599492 
L 197.790354 73.938537 
L 189.744184 75.684062 
L 181.79588 77.831656 
L 173.965518 80.375894 
L 166.272881 83.31035 
L 158.7374 86.627611 
L 151.378109 90.319298 
L 144.2136 94.376084 
L 137.261971 98.787722 
L 130.540781 103.543068 
L 124.06701 108.63011 
L 117.857011 114.035996 
L 111.92647 119.747072 
L 106.290368 125.74891 
L 100.962944 132.02635 
L 95.957654 138.563534 
L 91.287142 145.343949 
L 86.963206 152.350466 
L 82.99677 159.565387 
L 79.397852 166.970486 
L 76.175544 174.547058 
L 73.337986 182.275962 
L 70.892345 190.137676 
L 68.844799 198.11234 
L 67.200521 206.179808 
L 65.963664 214.319703 
L 65.137353 222.511462 
L 64.878846 226.620328 
L 62.104375 228.966781 
L 61.537358 231.761321 
L 63.177331 235.003854 
L 67.405733 235.670127 
L 389.577124 235.59825 
L 393.603657 234.853962 
L 395.378267 231.691491 
L 394.874886 228.946931 
L 392.093271 226.620328 
L 392.093271 226.620328 
" clip-path="url(#pf2cbbb50f9)" style="fill: none; stroke: #999999; stroke-opacity: 0.6; stroke-width: 0.8; stroke-linecap: square"/>
   </g>
   <g id="line2d_22">
    <path d="M 392.093271 226.620328 
L 391.473081 218.410391 
L 390.441171 210.241984 
L 389.000149 202.135742 
L 387.153654 194.112142 
L 384.906351 186.191452 
L 382.263916 178.39368 
L 379.233026 170.738525 
L 375.821336 163.245323 
L 372.037463 155.933003 
L 367.890968 148.820038 
L 363.392324 141.924394 
L 358.552895 135.263491 
L 353.384905 128.854155 
L 347.90141 122.712576 
L 342.116262 116.854269 
L 336.044074 111.294032 
L 329.700185 106.045911 
L 323.100621 101.123163 
L 316.262052 96.538223 
L 309.201753 92.302673 
L 301.937559 88.427212 
L 294.48782 84.921632 
L 286.871356 81.794785 
L 279.107404 79.054573 
L 271.215579 76.707915 
L 263.215816 74.760741 
L 255.128322 73.217969 
L 246.973527 72.083497 
L 238.772032 71.360189 
L 230.544553 71.049873 
L 222.311874 71.153334 
L 214.094792 71.670309 
L 205.914064 72.599492 
L 197.790354 73.938537 
L 189.744184 75.684062 
L 181.79588 77.831656 
L 173.965518 80.375894 
L 166.272881 83.31035 
L 158.7374 86.627611 
L 151.378109 90.319298 
L 144.2136 94.376084 
L 137.261971 98.787722 
L 130.540781 103.543068 
L 124.06701 108.63011 
L 117.857011 114.035996 
L 111.92647 119.747072 
L 106.290368 125.74891 
L 100.962944 132.02635 
L 95.957654 138.563534 
L 91.287142 145.343949 
L 86.963206 152.350466 
L 82.99677 159.565387 
L 79.397852 166.970486 
L 76.175544 174.547058 
L 73.337986 182.275962 
L 70.892345 190.137676 
L 68.844799 198.11234 
L 67.200521 206.179808 
L 65.963664 214.319703 
L 65.137353 222.511462 
L 64.878846 226.620328 
L 62.104375 228.966781 
L 61.537358 231.761321 
L 63.177331 235.003854 
L 67.405733 235.670127 
L 389.577124 235.59825 
L 393.603657 234.853962 
L 395.378267 231.691491 
L 394.874886 228.946931 
L 392.093271 226.620328 
L 392.093271 226.620328 
" clip-path="url(#pf2cbbb50f9)" style="fill: none; stroke: #999999; stroke-opacity: 0.6; stroke-width: 0.8; stroke-linecap: square"/>
   </g>
   <g id="line2d_23">
    <path d="M 392.093271 226.620328 
L 391.473081 218.410391 
L 390.441171 210.241984 
L 389.000149 202.135742 
L 387.153654 194.112142 
L 384.906351 186.191452 
L 382.263916 178.39368 
L 379.233026 170.738525 
L 375.821336 163.245323 
L 372.037463 155.933003 
L 367.890968 148.820038 
L 363.392324 141.924394 
L 358.552895 135.263491 
L 353.384905 128.854155 
L 347.90141 122.712576 
L 342.116262 116.854269 
L 336.044074 111.294032 
L 329.700185 106.045911 
L 323.100621 101.123163 
L 316.262052 96.538223 
L 309.201753 92.302673 
L 301.937559 88.427212 
L 294.48782 84.921632 
L 286.871356 81.794785 
L 279.107404 79.054573 
L 271.215579 76.707915 
L 263.215816 74.760741 
L 255.128322 73.217969 
L 246.973527 72.083497 
L 238.772032 71.360189 
L 230.544553 71.049873 
L 222.311874 71.153334 
L 214.094792 71.670309 
L 205.914064 72.599492 
L 197.790354 73.938537 
L 189.744184 75.684062 
L 181.79588 77.831656 
L 173.965518 80.375894 
L 166.272881 83.31035 
L 158.7374 86.627611 
L 151.378109 90.319298 
L 144.2136 94.376084 
L 137.261971 98.787722 
L 130.540781 103.543068 
L 124.06701 108.63011 
L 117.857011 114.035996 
L 111.92647 119.747072 
L 106.290368 125.74891 
L 100.962944 132.02635 
L 95.957654 138.563534 
L 91.287142 145.343949 
L 86.963206 152.350466 
L 82.99677 159.565387 
L 79.397852 166.970486 
L 76.175544 174.547058 
L 73.337986 182.275962 
L 70.892345 190.137676 
L 68.844799 198.11234 
L 67.200521 206.179808 
L 65.963664 214.319703 
L 65.137353 222.511462 
L 64.878846 226.620328 
L 62.104375 228.966781 
L 61.537358 231.761321 
L 63.177331 235.003854 
L 67.405733 235.670127 
L 389.577124 235.59825 
L 393.603657 234.853962 
L 395.378267 231.691491 
L 394.874886 228.946931 
L 392.093271 226.620328 
L 392.093271 226.620328 
" clip-path="url(#pf2cbbb50f9)" style="fill: none; stroke: #999999; stroke-opacity: 0.6; stroke-width: 0.8; stroke-linecap: square"/>
   </g>
   <g id="line2d_24">
    <path d="M 392.093271 226.620328 
L 391.473081 218.410391 
L 390.441171 210.241984 
L 389.000149 202.135742 
L 387.153654 194.112142 
L 384.906351 186.191452 
L 382.263916 178.39368 
L 379.233026 170.738525 
L 375.821336 163.245323 
L 372.037463 155.933003 
L 367.890968 148.820038 
L 363.392324 141.924394 
L 358.552895 135.263491 
L 353.384905 128.854155 
L 347.90141 122.712576 
L 342.116262 116.854269 
L 336.044074 111.294032 
L 329.700185 106.045911 
L 323.100621 101.123163 
L 316.262052 96.538223 
L 309.201753 92.302673 
L 301.937559 88.427212 
L 294.48782 84.921632 
L 286.871356 81.794785 
L 279.107404 79.054573 
L 271.215579 76.707915 
L 263.215816 74.760741 
L 255.128322 73.217969 
L 246.973527 72.083497 
L 238.772032 71.360189 
L 230.544553 71.049873 
L 222.311874 71.153334 
L 214.094792 71.670309 
L 205.914064 72.599492 
L 197.790354 73.938537 
L 189.744184 75.684062 
L 181.79588 77.831656 
L 173.965518 80.375894 
L 166.272881 83.31035 
L 158.7374 86.627611 
L 151.378109 90.319298 
L 144.2136 94.376084 
L 137.261971 98.787722 
L 130.540781 103.543068 
L 124.06701 108.63011 
L 117.857011 114.035996 
L 111.92647 119.747072 
L 106.290368 125.74891 
L 100.962944 132.02635 
L 95.957654 138.563534 
L 91.287142 145.343949 
L 86.963206 152.350466 
L 82.99677 159.565387 
L 79.397852 166.970486 
L 76.175544 174.547058 
L 73.337986 182.275962 
L 70.892345 190.137676 
L 68.844799 198.11234 
L 67.200521 206.179808 
L 65.963664 214.319703 
L 65.137353 222.511462 
L 64.878846 226.620328 
L 62.104375 228.966781 
L 61.537358 231.761321 
L 63.177331 235.003854 
L 67.405733 235.670127 
L 389.577124 235.59825 
L 393.603657 234.853962 
L 395.378267 231.691491 
L 394.874886 228.946931 
L 392.093271 226.620328 
L 392.093271 226.620328 
" clip-path="url(#pf2cbbb50f9)" style="fill: none; stroke: #999999; stroke-opacity: 0.6; stroke-width: 0.8; stroke-linecap: square"/>
   </g>
   <g id="line2d_25">
    <path d="M 392.093271 226.620328 
L 391.473081 218.410391 
L 390.441171 210.241984 
L 389.000149 202.135742 
L 387.153654 194.112142 
L 384.906351 186.191452 
L 382.263916 178.39368 
L 379.233026 170.738525 
L 375.821336 163.245323 
L 372.037463 155.933003 
L 367.890968 148.820038 
L 363.392324 141.924394 
L 358.552895 135.263491 
L 353.384905 128.854155 
L 347.90141 122.712576 
L 342.116262 116.854269 
L 336.044074 111.294032 
L 329.700185 106.045911 
L 323.100621 101.123163 
L 316.262052 96.538223 
L 309.201753 92.302673 
L 301.937559 88.427212 
L 294.48782 84.921632 
L 286.871356 81.794785 
L 279.107404 79.054573 
L 271.215579 76.707915 
L 263.215816 74.760741 
L 255.128322 73.217969 
L 246.973527 72.083497 
L 238.772032 71.360189 
L 230.544553 71.049873 
L 222.311874 71.153334 
L 214.094792 71.670309 
L 205.914064 72.599492 
L 197.790354 73.938537 
L 189.744184 75.684062 
L 181.79588 77.831656 
L 173.965518 80.375894 
L 166.272881 83.31035 
L 158.7374 86.627611 
L 151.378109 90.319298 
L 144.2136 94.376084 
L 137.261971 98.787722 
L 130.540781 103.543068 
L 124.06701 108.63011 
L 117.857011 114.035996 
L 111.92647 119.747072 
L 106.290368 125.74891 
L 100.962944 132.02635 
L 95.957654 138.563534 
L 91.287142 145.343949 
L 86.963206 152.350466 
L 82.99677 159.565387 
L 79.397852 166.970486 
L 76.175544 174.547058 
L 73.337986 182.275962 
L 70.892345 190.137676 
L 68.844799 198.11234 
L 67.200521 206.179808 
L 65.963664 214.319703 
L 65.137353 222.511462 
L 64.878846 226.620328 
L 62.104375 228.966781 
L 61.537358 231.761321 
L 63.177331 235.003854 
L 67.405733 235.670127 
L 389.577124 235.59825 
L 393.603657 234.853962 
L 395.378267 231.691491 
L 394.874886 228.946931 
L 392.093271 226.620328 
L 392.093271 226.620328 
" clip-path="url(#pf2cbbb50f9)" style="fill: none; stroke: #999999; stroke-opacity: 0.6; stroke-width: 0.8; stroke-linecap: square"/>
   </g>
   <g id="line2d_26">
    <path d="M 392.093271 226.620328 
L 391.473081 218.410391 
L 390.441171 210.241984 
L 389.000149 202.135742 
L 387.153654 194.112142 
L 384.906351 186.191452 
L 382.263916 178.39368 
L 379.233026 170.738525 
L 375.821336 163.245323 
L 372.037463 155.933003 
L 367.890968 148.820038 
L 363.392324 141.924394 
L 358.552895 135.263491 
L 353.384905 128.854155 
L 347.90141 122.712576 
L 342.116262 116.854269 
L 336.044074 111.294032 
L 329.700185 106.045911 
L 323.100621 101.123163 
L 316.262052 96.538223 
L 309.201753 92.302673 
L 301.937559 88.427212 
L 294.48782 84.921632 
L 286.871356 81.794785 
L 279.107404 79.054573 
L 271.215579 76.707915 
L 263.215816 74.760741 
L 255.128322 73.217969 
L 246.973527 72.083497 
L 238.772032 71.360189 
L 230.544553 71.049873 
L 222.311874 71.153334 
L 214.094792 71.670309 
L 205.914064 72.599492 
L 197.790354 73.938537 
L 189.744184 75.684062 
L 181.79588 77.831656 
L 173.965518 80.375894 
L 166.272881 83.31035 
L 158.7374 86.627611 
L 151.378109 90.319298 
L 144.2136 94.376084 
L 137.261971 98.787722 
L 130.540781 103.543068 
L 124.06701 108.63011 
L 117.857011 114.035996 
L 111.92647 119.747072 
L 106.290368 125.74891 
L 100.962944 132.02635 
L 95.957654 138.563534 
L 91.287142 145.343949 
L 86.963206 152.350466 
L 82.99677 159.565387 
L 79.397852 166.970486 
L 76.175544 174.547058 
L 73.337986 182.275962 
L 70.892345 190.137676 
L 68.844799 198.11234 
L 67.200521 206.179808 
L 65.963664 214.319703 
L 65.137353 222.511462 
L 64.878846 226.620328 
L 62.104375 228.966781 
L 61.537358 231.761321 
L 63.177331 235.003854 
L 67.405733 235.670127 
L 389.577124 235.59825 
L 393.603657 234.853962 
L 395.378267 231.691491 
L 394.874886 228.946931 
L 392.093271 226.620328 
L 392.093271 226.620328 
" clip-path="url(#pf2cbbb50f9)" style="fill: none; stroke: #999999; stroke-opacity: 0.6; stroke-width: 0.8; stroke-linecap: square"/>
   </g>
   <g id="line2d_27">
    <path d="M 392.093271 226.620328 
L 391.473081 218.410391 
L 390.441171 210.241984 
L 389.000149 202.135742 
L 387.153654 194.112142 
L 384.906351 186.191452 
L 382.263916 178.39368 
L 379.233026 170.738525 
L 375.821336 163.245323 
L 372.037463 155.933003 
L 367.890968 148.820038 
L 363.392324 141.924394 
L 358.552895 135.263491 
L 353.384905 128.854155 
L 347.90141 122.712576 
L 342.116262 116.854269 
L 336.044074 111.294032 
L 329.700185 106.045911 
L 323.100621 101.123163 
L 316.262052 96.538223 
L 309.201753 92.302673 
L 301.937559 88.427212 
L 294.48782 84.921632 
L 286.871356 81.794785 
L 279.107404 79.054573 
L 271.215579 76.707915 
L 263.215816 74.760741 
L 255.128322 73.217969 
L 246.973527 72.083497 
L 238.772032 71.360189 
L 230.544553 71.049873 
L 222.311874 71.153334 
L 214.094792 71.670309 
L 205.914064 72.599492 
L 197.790354 73.938537 
L 189.744184 75.684062 
L 181.79588 77.831656 
L 173.965518 80.375894 
L 166.272881 83.31035 
L 158.7374 86.627611 
L 151.378109 90.319298 
L 144.2136 94.376084 
L 137.261971 98.787722 
L 130.540781 103.543068 
L 124.06701 108.63011 
L 117.857011 114.035996 
L 111.92647 119.747072 
L 106.290368 125.74891 
L 100.962944 132.02635 
L 95.957654 138.563534 
L 91.287142 145.343949 
L 86.963206 152.350466 
L 82.99677 159.565387 
L 79.397852 166.970486 
L 76.175544 174.547058 
L 73.337986 182.275962 
L 70.892345 190.137676 
L 68.844799 198.11234 
L 67.200521 206.179808 
L 65.963664 214.319703 
L 65.137353 222.511462 
L 64.878846 226.620328 
L 62.104375 228.966781 
L 61.537358 231.761321 
L 63.177331 235.003854 
L 67.405733 235.670127 
L 389.577124 235.59825 
L 393.603657 234.853962 
L 395.378267 231.691491 
L 394.874886 228.946931 
L 392.093271 226.620328 
L 392.093271 226.620328 
" clip-path="url(#pf2cbbb50f9)" style="fill: none; stroke: #999999; stroke-opacity: 0.6; stroke-width: 0.8; stroke-linecap: square"/>
   </g>
   <g id="line2d_28">
    <path d="M 392.093271 226.620328 
L 391.473081 218.410391 
L 390.441171 210.241984 
L 389.000149 202.135742 
L 387.153654 194.112142 
L 384.906351 186.191452 
L 382.263916 178.39368 
L 379.233026 170.738525 
L 375.821336 163.245323 
L 372.037463 155.933003 
L 367.890968 148.820038 
L 363.392324 141.924394 
L 358.552895 135.263491 
L 353.384905 128.854155 
L 347.90141 122.712576 
L 342.116262 116.854269 
L 336.044074 111.294032 
L 329.700185 106.045911 
L 323.100621 101.123163 
L 316.262052 96.538223 
L 309.201753 92.302673 
L 301.937559 88.427212 
L 294.48782 84.921632 
L 286.871356 81.794785 
L 279.107404 79.054573 
L 271.215579 76.707915 
L 263.215816 74.760741 
L 255.128322 73.217969 
L 246.973527 72.083497 
L 238.772032 71.360189 
L 230.544553 71.049873 
L 222.311874 71.153334 
L 214.094792 71.670309 
L 205.914064 72.599492 
L 197.790354 73.938537 
L 189.744184 75.684062 
L 181.79588 77.831656 
L 173.965518 80.375894 
L 166.272881 83.31035 
L 158.7374 86.627611 
L 151.378109 90.319298 
L 144.2136 94.376084 
L 137.261971 98.787722 
L 130.540781 103.543068 
L 124.06701 108.63011 
L 117.857011 114.035996 
L 111.92647 119.747072 
L 106.290368 125.74891 
L 100.962944 132.02635 
L 95.957654 138.563534 
L 91.287142 145.343949 
L 86.963206 152.350466 
L 82.99677 159.565387 
L 79.397852 166.970486 
L 76.175544 174.547058 
L 73.337986 182.275962 
L 70.892345 190.137676 
L 68.844799 198.11234 
L 67.200521 206.179808 
L 65.963664 214.319703 
L 65.137353 222.511462 
L 64.878846 226.620328 
L 62.104375 228.966781 
L 61.537358 231.761321 
L 63.177331 235.003854 
L 67.405733 235.670127 
L 389.577124 235.59825 
L 393.603657 234.853962 
L 395.378267 231.691491 
L 394.874886 228.946931 
L 392.093271 226.620328 
L 392.093271 226.620328 
" clip-path="url(#pf2cbbb50f9)" style="fill: none; stroke: #999999; stroke-opacity: 0.6; stroke-width: 0.8; stroke-linecap: square"/>
   </g>
   <g id="line2d_29">
    <path d="M 392.093271 226.620328 
L 391.473081 218.410391 
L 390.441171 210.241984 
L 389.000149 202.135742 
L 387.153654 194.112142 
L 384.906351 186.191452 
L 382.263916 178.39368 
L 379.233026 170.738525 
L 375.821336 163.245323 
L 372.037463 155.933003 
L 367.890968 148.820038 
L 363.392324 141.924394 
L 358.552895 135.263491 
L 353.384905 128.854155 
L 347.90141 122.712576 
L 342.116262 116.854269 
L 336.044074 111.294032 
L 329.700185 106.045911 
L 323.100621 101.123163 
L 316.262052 96.538223 
L 309.201753 92.302673 
L 301.937559 88.427212 
L 294.48782 84.921632 
L 286.871356 81.794785 
L 279.107404 79.054573 
L 271.215579 76.707915 
L 263.215816 74.760741 
L 255.128322 73.217969 
L 246.973527 72.083497 
L 238.772032 71.360189 
L 230.544553 71.049873 
L 222.311874 71.153334 
L 214.094792 71.670309 
L 205.914064 72.599492 
L 197.790354 73.938537 
L 189.744184 75.684062 
L 181.79588 77.831656 
L 173.965518 80.375894 
L 166.272881 83.31035 
L 158.7374 86.627611 
L 151.378109 90.319298 
L 144.2136 94.376084 
L 137.261971 98.787722 
L 130.540781 103.543068 
L 124.06701 108.63011 
L 117.857011 114.035996 
L 111.92647 119.747072 
L 106.290368 125.74891 
L 100.962944 132.02635 
L 95.957654 138.563534 
L 91.287142 145.343949 
L 86.963206 152.350466 
L 82.99677 159.565387 
L 79.397852 166.970486 
L 76.175544 174.547058 
L 73.337986 182.275962 
L 70.892345 190.137676 
L 68.844799 198.11234 
L 67.200521 206.179808 
L 65.963664 214.319703 
L 65.137353 222.511462 
L 64.878846 226.620328 
L 62.104375 228.966781 
L 61.537358 231.761321 
L 63.177331 235.003854 
L 67.405733 235.670127 
L 389.577124 235.59825 
L 393.603657 234.853962 
L 395.378267 231.691491 
L 394.874886 228.946931 
L 392.093271 226.620328 
L 392.093271 226.620328 
" clip-path="url(#pf2cbbb50f9)" style="fill: none; stroke: #999999; stroke-opacity: 0.6; stroke-width: 0.8; stroke-linecap: square"/>
   </g>
   <g id="line2d_30">
    <path d="M 392.093271 226.620328 
L 391.473081 218.410391 
L 390.441171 210.241984 
L 389.000149 202.135742 
L 387.153654 194.112142 
L 384.906351 186.191452 
L 382.263916 178.39368 
L 379.233026 170.738525 
L 375.821336 163.245323 
L 372.037463 155.933003 
L 367.890968 148.820038 
L 363.392324 141.924394 
L 358.552895 135.263491 
L 353.384905 128.854155 
L 347.90141 122.712576 
L 342.116262 116.854269 
L 336.044074 111.294032 
L 329.700185 106.045911 
L 323.100621 101.123163 
L 316.262052 96.538223 
L 309.201753 92.302673 
L 301.937559 88.427212 
L 294.48782 84.921632 
L 286.871356 81.794785 
L 279.107404 79.054573 
L 271.215579 76.707915 
L 263.215816 74.760741 
L 255.128322 73.217969 
L 246.973527 72.083497 
L 238.772032 71.360189 
L 230.544553 71.049873 
L 222.311874 71.153334 
L 214.094792 71.670309 
L 205.914064 72.599492 
L 197.790354 73.938537 
L 189.744184 75.684062 
L 181.79588 77.831656 
L 173.965518 80.375894 
L 166.272881 83.31035 
L 158.7374 86.627611 
L 151.378109 90.319298 
L 144.2136 94.376084 
L 137.261971 98.787722 
L 130.540781 103.543068 
L 124.06701 108.63011 
L 117.857011 114.035996 
L 111.92647 119.747072 
L 106.290368 125.74891 
L 100.962944 132.02635 
L 95.957654 138.563534 
L 91.287142 145.343949 
L 86.963206 152.350466 
L 82.99677 159.565387 
L 79.397852 166.970486 
L 76.175544 174.547058 
L 73.337986 182.275962 
L 70.892345 190.137676 
L 68.844799 198.11234 
L 67.200521 206.179808 
L 65.963664 214.319703 
L 65.137353 222.511462 
L 64.878846 226.620328 
L 62.104375 228.966781 
L 61.537358 231.761321 
L 63.177331 235.003854 
L 67.405733 235.670127 
L 389.577124 235.59825 
L 393.603657 234.853962 
L 395.378267 231.691491 
L 394.874886 228.946931 
L 392.093271 226.620328 
L 392.093271 226.620328 
" clip-path="url(#pf2cbbb50f9)" style="fill: none; stroke: #999999; stroke-opacity: 0.6; stroke-width: 0.8; stroke-linecap: square"/>
   </g>
   <g id="matplotlib.axis_1">
    <g id="xtick_1">
     <g id="line2d_31">
      <defs>
       <path id="md34f1931e9" d="M 0 0 
L 0 3.5 
" style="stroke: #000000; stroke-width: 0.8"/>
      </defs>
      <g>
       <use xlink:href="#md34f1931e9" x="64.671941" y="299.52" style="stroke: #000000; stroke-width: 0.8"/>
      </g>
     </g>
     <g id="text_1">
      <text style="font: 10px 'DejaVu Sans', 'Bitstream Vera Sans', 'Computer Modern Sans Serif', 'Lucida Grande', 'Verdana', 'Geneva', 'Lucid', 'Arial', 'Helvetica', 'Avant Garde', sans-serif; text-anchor: middle" x="64.671941" y="314.118437" transform="rotate(-0 64.671941 314.118437)">0.20</text>
     </g>
    </g>
    <g id="xtick_2">
     <g id="line2d_32">
      <g>
       <use xlink:href="#md34f1931e9" x="105.625471" y="299.52" style="stroke: #000000; stroke-width: 0.8"/>
      </g>
     </g>
     <g id="text_2">
      <text style="font: 10px 'DejaVu Sans', 'Bitstream Vera Sans', 'Computer Modern Sans Serif', 'Lucida Grande', 'Verdana', 'Geneva', 'Lucid', 'Arial', 'Helvetica', 'Avant Garde', sans-serif; text-anchor: middle" x="105.625471" y="314.118437" transform="rotate(-0 105.625471 314.118437)">0.15</text>
     </g>
    </g>
    <g id="xtick_3">
     <g id="line2d_33">
      <g>
       <use xlink:href="#md34f1931e9" x="146.579" y="299.52" style="stroke: #000000; stroke-width: 0.8"/>
      </g>
     </g>
     <g id="text_3">
      <text style="font: 10px 'DejaVu Sans', 'Bitstream Vera Sans', 'Computer Modern Sans Serif', 'Lucida Grande', 'Verdana', 'Geneva', 'Lucid', 'Arial', 'Helvetica', 'Avant Garde', sans-serif; text-anchor: middle" x="146.579" y="314.118437" transform="rotate(-0 146.579 314.118437)">0.10</text>
     </g>
    </g>
    <g id="xtick_4">
     <g id="line2d_34">
      <g>
       <use xlink:href="#md34f1931e9" x="187.532529" y="299.52" style="stroke: #000000; stroke-width: 0.8"/>
      </g>
     </g>
     <g id="text_4">
      <text style="font: 10px 'DejaVu Sans', 'Bitstream Vera Sans', 'Computer Modern Sans Serif', 'Lucida Grande', 'Verdana', 'Geneva', 'Lucid', 'Arial', 'Helvetica', 'Avant Garde', sans-serif; text-anchor: middle" x="187.532529" y="314.118437" transform="rotate(-0 187.532529 314.118437)">0.05</text>
     </g>
    </g>
    <g id="xtick_5">
     <g id="line2d_35">
      <g>
       <use xlink:href="#md34f1931e9" x="228.486058" y="299.52" style="stroke: #000000; stroke-width: 0.8"/>
      </g>
     </g>
     <g id="text_5">
      <text style="font: 10px 'DejaVu Sans', 'Bitstream Vera Sans', 'Computer Modern Sans Serif', 'Lucida Grande', 'Verdana', 'Geneva', 'Lucid', 'Arial', 'Helvetica', 'Avant Garde', sans-serif; text-anchor: middle" x="228.486058" y="314.118437" transform="rotate(-0 228.486058 314.118437)">0.00</text>
     </g>
    </g>
    <g id="xtick_6">
     <g id="line2d_36">
      <g>
       <use xlink:href="#md34f1931e9" x="269.439588" y="299.52" style="stroke: #000000; stroke-width: 0.8"/>
      </g>
     </g>
     <g id="text_6">
      <text style="font: 10px 'DejaVu Sans', 'Bitstream Vera Sans', 'Computer Modern Sans Serif', 'Lucida Grande', 'Verdana', 'Geneva', 'Lucid', 'Arial', 'Helvetica', 'Avant Garde', sans-serif; text-anchor: middle" x="269.439588" y="314.118437" transform="rotate(-0 269.439588 314.118437)">0.05</text>
     </g>
    </g>
    <g id="xtick_7">
     <g id="line2d_37">
      <g>
       <use xlink:href="#md34f1931e9" x="310.393117" y="299.52" style="stroke: #000000; stroke-width: 0.8"/>
      </g>
     </g>
     <g id="text_7">
      <text style="font: 10px 'DejaVu Sans', 'Bitstream Vera Sans', 'Computer Modern Sans Serif', 'Lucida Grande', 'Verdana', 'Geneva', 'Lucid', 'Arial', 'Helvetica', 'Avant Garde', sans-serif; text-anchor: middle" x="310.393117" y="314.118437" transform="rotate(-0 310.393117 314.118437)">0.10</text>
     </g>
    </g>
    <g id="xtick_8">
     <g id="line2d_38">
      <g>
       <use xlink:href="#md34f1931e9" x="351.346646" y="299.52" style="stroke: #000000; stroke-width: 0.8"/>
      </g>
     </g>
     <g id="text_8">
      <text style="font: 10px 'DejaVu Sans', 'Bitstream Vera Sans', 'Computer Modern Sans Serif', 'Lucida Grande', 'Verdana', 'Geneva', 'Lucid', 'Arial', 'Helvetica', 'Avant Garde', sans-serif; text-anchor: middle" x="351.346646" y="314.118437" transform="rotate(-0 351.346646 314.118437)">0.15</text>
     </g>
    </g>
    <g id="xtick_9">
     <g id="line2d_39">
      <g>
       <use xlink:href="#md34f1931e9" x="392.300175" y="299.52" style="stroke: #000000; stroke-width: 0.8"/>
      </g>
     </g>
     <g id="text_9">
      <text style="font: 10px 'DejaVu Sans', 'Bitstream Vera Sans', 'Computer Modern Sans Serif', 'Lucida Grande', 'Verdana', 'Geneva', 'Lucid', 'Arial', 'Helvetica', 'Avant Garde', sans-serif; text-anchor: middle" x="392.300175" y="314.118437" transform="rotate(-0 392.300175 314.118437)">0.20</text>
     </g>
    </g>
   </g>
   <g id="matplotlib.axis_2">
    <g id="ytick_1">
     <g id="line2d_40">
      <defs>
       <path id="m07dff522dc" d="M 0 0 
L -3.5 0 
" style="stroke: #000000; stroke-width: 0.8"/>
      </defs>
      <g>
       <use xlink:href="#m07dff522dc" x="44.845313" y="275.804586" style="stroke: #000000; stroke-width: 0.8"/>
      </g>
     </g>
     <g id="text_10">
      <text style="font: 10px 'DejaVu Sans', 'Bitstream Vera Sans', 'Computer Modern Sans Serif', 'Lucida Grande', 'Verdana', 'Geneva', 'Lucid', 'Arial', 'Helvetica', 'Avant Garde', sans-serif; text-anchor: end" x="37.845313" y="279.603804" transform="rotate(-0 37.845313 279.603804)">0.05</text>
     </g>
    </g>
    <g id="ytick_2">
     <g id="line2d_41">
      <g>
       <use xlink:href="#m07dff522dc" x="44.845313" y="234.851056" style="stroke: #000000; stroke-width: 0.8"/>
      </g>
     </g>
     <g id="text_11">
      <text style="font: 10px 'DejaVu Sans', 'Bitstream Vera Sans', 'Computer Modern Sans Serif', 'Lucida Grande', 'Verdana', 'Geneva', 'Lucid', 'Arial', 'Helvetica', 'Avant Garde', sans-serif; text-anchor: end" x="37.845313" y="238.650275" transform="rotate(-0 37.845313 238.650275)">0.00</text>
     </g>
    </g>
    <g id="ytick_3">
     <g id="line2d_42">
      <g>
       <use xlink:href="#m07dff522dc" x="44.845313" y="193.897527" style="stroke: #000000; stroke-width: 0.8"/>
      </g>
     </g>
     <g id="text_12">
      <text style="font: 10px 'DejaVu Sans', 'Bitstream Vera Sans', 'Computer Modern Sans Serif', 'Lucida Grande', 'Verdana', 'Geneva', 'Lucid', 'Arial', 'Helvetica', 'Avant Garde', sans-serif; text-anchor: end" x="37.845313" y="197.696746" transform="rotate(-0 37.845313 197.696746)">0.05</text>
     </g>
    </g>
    <g id="ytick_4">
     <g id="line2d_43">
      <g>
       <use xlink:href="#m07dff522dc" x="44.845313" y="152.943998" style="stroke: #000000; stroke-width: 0.8"/>
      </g>
     </g>
     <g id="text_13">
      <text style="font: 10px 'DejaVu Sans', 'Bitstream Vera Sans', 'Computer Modern Sans Serif', 'Lucida Grande', 'Verdana', 'Geneva', 'Lucid', 'Arial', 'Helvetica', 'Avant Garde', sans-serif; text-anchor: end" x="37.845313" y="156.743216" transform="rotate(-0 37.845313 156.743216)">0.10</text>
     </g>
    </g>
    <g id="ytick_5">
     <g id="line2d_44">
      <g>
       <use xlink:href="#m07dff522dc" x="44.845313" y="111.990468" style="stroke: #000000; stroke-width: 0.8"/>
      </g>
     </g>
     <g id="text_14">
      <text style="font: 10px 'DejaVu Sans', 'Bitstream Vera Sans', 'Computer Modern Sans Serif', 'Lucida Grande', 'Verdana', 'Geneva', 'Lucid', 'Arial', 'Helvetica', 'Avant Garde', sans-serif; text-anchor: end" x="37.845313" y="115.789687" transform="rotate(-0 37.845313 115.789687)">0.15</text>
     </g>
    </g>
    <g id="ytick_6">
     <g id="line2d_45">
      <g>
       <use xlink:href="#m07dff522dc" x="44.845313" y="71.036939" style="stroke: #000000; stroke-width: 0.8"/>
      </g>
     </g>
     <g id="text_15">
      <text style="font: 10px 'DejaVu Sans', 'Bitstream Vera Sans', 'Computer Modern Sans Serif', 'Lucida Grande', 'Verdana', 'Geneva', 'Lucid', 'Arial', 'Helvetica', 'Avant Garde', sans-serif; text-anchor: end" x="37.845313" y="74.836158" transform="rotate(-0 37.845313 74.836158)">0.20</text>
     </g>
    </g>
    <g id="ytick_7">
     <g id="line2d_46">
      <g>
       <use xlink:href="#m07dff522dc" x="44.845313" y="30.08341" style="stroke: #000000; stroke-width: 0.8"/>
      </g>
     </g>
     <g id="text_16">
      <text style="font: 10px 'DejaVu Sans', 'Bitstream Vera Sans', 'Computer Modern Sans Serif', 'Lucida Grande', 'Verdana', 'Geneva', 'Lucid', 'Arial', 'Helvetica', 'Avant Garde', sans-serif; text-anchor: end" x="37.845313" y="33.882629" transform="rotate(-0 37.845313 33.882629)">0.25</text>
     </g>
    </g>
   </g>
   <g id="line2d_47">
    <path d="M 392.093271 226.620328 
L 391.473081 218.410391 
L 390.441171 210.241984 
L 389.000149 202.135742 
L 387.153654 194.112142 
L 384.906351 186.191452 
L 382.263916 178.39368 
L 379.233026 170.738525 
L 375.821336 163.245323 
L 372.037463 155.933003 
L 367.890968 148.820038 
L 363.392324 141.924394 
L 358.552895 135.263491 
L 353.384905 128.854155 
L 347.90141 122.712576 
L 342.116262 116.854269 
L 336.044074 111.294032 
L 329.700185 106.045911 
L 323.100621 101.123163 
L 316.262052 96.538223 
L 309.201753 92.302673 
L 301.937559 88.427212 
L 294.48782 84.921632 
L 286.871356 81.794785 
L 279.107404 79.054573 
L 271.215579 76.707915 
L 263.215816 74.760741 
L 255.128322 73.217969 
L 246.973527 72.083497 
L 238.772032 71.360189 
L 230.544553 71.049873 
L 222.311874 71.153334 
L 214.094792 71.670309 
L 205.914064 72.599492 
L 197.790354 73.938537 
L 189.744184 75.684062 
L 181.79588 77.831656 
L 173.965518 80.375894 
L 166.272881 83.31035 
L 158.7374 86.627611 
L 151.378109 90.319298 
L 144.2136 94.376084 
L 137.261971 98.787722 
L 130.540781 103.543068 
L 124.06701 108.63011 
L 117.857011 114.035996 
L 111.92647 119.747072 
L 106.290368 125.74891 
L 100.962944 132.02635 
L 95.957654 138.563534 
L 91.287142 145.343949 
L 86.963206 152.350466 
L 82.99677 159.565387 
L 79.397852 166.970486 
L 76.175544 174.547058 
L 73.337986 182.275962 
L 70.892345 190.137676 
L 68.844799 198.11234 
L 67.200521 206.179808 
L 65.963664 214.319703 
L 65.137353 222.511462 
L 64.878846 226.620328 
L 62.104375 228.966781 
L 61.537358 231.761321 
L 63.177331 235.003854 
L 67.405733 235.670127 
L 389.577124 235.59825 
L 393.603657 234.853962 
L 395.378267 231.691491 
L 394.874886 228.946931 
L 392.093271 226.620328 
L 392.093271 226.620328 
" clip-path="url(#pf2cbbb50f9)" style="fill: none; stroke: #0000ff; stroke-width: 2; stroke-linecap: square"/>
   </g>
   <g id="line2d_48">
    <path d="M 392.093271 226.620328 
L 392.093271 226.620328 
" clip-path="url(#pf2cbbb50f9)" style="fill: none; stroke: #0000ff; stroke-width: 2; stroke-linecap: square"/>
   </g>
   <g id="line2d_49"/>
   <g id="line2d_50"/>
   <g id="patch_4">
    <path d="M 44.845313 299.52 
L 44.845313 7.2 
" style="fill: none; stroke: #000000; stroke-width: 0.8; stroke-linejoin: miter; stroke-linecap: square"/>
   </g>
   <g id="patch_5">
    <path d="M 412.070312 299.52 
L 412.070312 7.2 
" style="fill: none; stroke: #000000; stroke-width: 0.8; stroke-linejoin: miter; stroke-linecap: square"/>
   </g>
   <g id="patch_6">
    <path d="M 44.845313 299.52 
L 412.070312 299.52 
" style="fill: none; stroke: #000000; stroke-width: 0.8; stroke-linejoin: miter; stroke-linecap: square"/>
   </g>
   <g id="patch_7">
    <path d="M 44.845313 7.2 
L 412.070312 7.2 
" style="fill: none; stroke: #000000; stroke-width: 0.8; stroke-linejoin: miter; stroke-linecap: square"/>
   </g>
   <g id="legend_1">
    <g id="patch_8">
     <path d="M 346.13125 44.55625 
L 405.070312 44.55625 
Q 407.070312 44.55625 407.070312 42.55625 
L 407.070312 14.2 
Q 407.070312 12.2 405.070312 12.2 
L 346.13125 12.2 
Q 344.13125 12.2 344.13125 14.2 
L 344.13125 42.55625 
Q 344.13125 44.55625 346.13125 44.55625 
z
" style="fill: #ffffff; opacity: 0.8; stroke: #cccccc; stroke-linejoin: miter"/>
    </g>
    <g id="line2d_51">
     <path d="M 348.13125 20.298437 
L 358.13125 20.298437 
L 368.13125 20.298437 
" style="fill: none; stroke: #ff0000; stroke-width: 2; stroke-linecap: square"/>
    </g>
    <g id="text_17">
     <text style="font: 10px 'DejaVu Sans', 'Bitstream Vera Sans', 'Computer Modern Sans Serif', 'Lucida Grande', 'Verdana', 'Geneva', 'Lucid', 'Arial', 'Helvetica', 'Avant Garde', sans-serif; text-anchor: start" x="376.13125" y="23.798437" transform="rotate(-0 376.13125 23.798437)">living</text>
    </g>
    <g id="line2d_52">
     <path d="M 348.13125 34.976562 
L 358.13125 34.976562 
L 368.13125 34.976562 
" style="fill: none; stroke: #0000ff; stroke-width: 2; stroke-linecap: square"/>
    </g>
    <g id="text_18">
     <text style="font: 10px 'DejaVu Sans', 'Bitstream Vera Sans', 'Computer Modern Sans Serif', 'Lucida Grande', 'Verdana', 'Geneva', 'Lucid', 'Arial', 'Helvetica', 'Avant Garde', sans-serif; text-anchor: start" x="376.13125" y="38.476562" transform="rotate(-0 376.13125 38.476562)">dead</text>
    </g>
   </g>
  </g>
 </g>
 <defs>
  <clipPath id="pf2cbbb50f9">
   <rect x="44.845313" y="7.2" width="367.225" height="292.32"/>
  </clipPath>
 </defs>
</svg>
